<svg width="141" height="130" viewBox="0 0 141 130" fill="none" xmlns="http://www.w3.org/2000/svg">
<path fill-rule="evenodd" clip-rule="evenodd" d="M12.1646 52.3027H128.83V82.3959C135.958 87.3244 140.5 94.7799 140.5 103.126C140.5 117.972 126.13 130 108.397 130C102.522 130 97.0176 128.679 92.2814 126.377C90.0184 125.274 87.3998 125.274 85.1368 126.377C80.4007 128.679 74.8967 130 69.021 130C63.614 130 58.5142 128.881 54.0448 126.9C51.9757 125.99 49.64 125.99 47.579 126.9C43.1096 128.881 38.0098 130 32.6028 130C14.8706 130 0.500488 117.972 0.500488 103.126C0.500488 94.7819 5.04 87.328 12.1646 82.3994V52.3027Z" fill="#F0F0E2"/>
<path d="M65.1658 1.65344L4.65594 43.0902C-3.04646 48.3606 0.667057 60.4661 9.99019 60.4661H131.01C140.333 60.4661 144.047 48.3606 136.344 43.0902L75.8422 1.65344C72.6243 -0.551146 68.3915 -0.551146 65.1658 1.65344Z" fill="#ED723D"/>
<path d="M38.2768 112.755C37.6892 112.755 37.1016 112.568 36.5945 112.187C35.3469 111.246 35.0893 109.47 36.023 108.212C41.3275 101.05 36.2323 93.8464 36.015 93.5463C35.0974 92.289 35.363 90.5125 36.6106 89.5797C37.8583 88.6468 39.613 88.9064 40.5386 90.1556C43.2834 93.8627 46.825 103.118 40.5386 111.603C39.9832 112.349 39.1381 112.747 38.2768 112.747V112.755Z" fill="#C0C0B5"/>
<path d="M103.271 89.0195C103.859 89.0195 104.446 89.206 104.953 89.5873C106.201 90.5282 106.459 92.3047 105.525 93.5621C100.22 100.725 105.316 107.928 105.533 108.228C106.45 109.485 106.185 111.262 104.937 112.195C103.69 113.128 101.935 112.868 101.009 111.619C98.2644 107.912 94.7228 98.6562 101.009 90.1713C101.565 89.4251 102.41 89.0276 103.271 89.0276L103.271 89.0195Z" fill="#C0C0B5"/>
<path fill-rule="evenodd" clip-rule="evenodd" d="M70.5169 82.6013C67.5465 87.4235 62.4769 89.5349 56.7259 89.5349C47.582 89.5349 40.1606 84.1973 40.1606 71.1131C40.1606 58.0288 47.582 49.9089 56.7259 49.9089C62.4769 49.9089 67.5465 53.1209 70.5169 58.7599C73.4873 53.1209 78.5569 49.9089 84.3079 49.9089C93.4518 49.9089 100.873 58.0288 100.873 71.1131C100.873 84.1973 93.4518 89.5349 84.3079 89.5349C78.5569 89.5349 73.4873 87.4235 70.5169 82.6013Z" fill="white"/>
<path d="M71.6004 70.7073C71.6004 79.9952 67.4228 83.7834 62.2633 83.7834C57.1038 83.7834 52.9263 79.9952 52.9263 70.7073C52.9263 61.4193 57.1038 55.6519 62.2633 55.6519C67.4228 55.6519 71.6004 61.4193 71.6004 70.7073Z" fill="#312C2C"/>
<path d="M100.014 70.7073C100.014 79.9952 95.8369 83.7834 90.6774 83.7834C85.5179 83.7834 81.3403 79.9952 81.3403 70.7073C81.3403 61.4193 85.5179 55.6519 90.6774 55.6519C95.8369 55.6519 100.014 61.4193 100.014 70.7073Z" fill="#312C2C"/>
<rect x="65.5005" y="93" width="10" height="16" rx="5" fill="#F4AB8B"/>
</svg>
