<svg width="16" height="17" viewBox="0 0 16 17" fill="none" xmlns="http://www.w3.org/2000/svg">
<g id="Icon">
<rect y="0.5" width="16" height="16" rx="6" fill="#B4B4B4"/>
<path id="Union" fill-rule="evenodd" clip-rule="evenodd" d="M12.8318 5.05475C13.1381 4.59524 13.014 3.97439 12.5545 3.66805C12.0949 3.36171 11.4741 3.48588 11.1678 3.94539L6.79056 10.5112L4.89458 6.71923C4.6476 6.22527 4.04695 6.02505 3.55298 6.27203C3.05902 6.51901 2.85881 7.11966 3.10579 7.61362L5.76072 12.9235C5.83556 13.0839 5.95393 13.2264 6.11196 13.3318C6.36292 13.4991 6.662 13.538 6.93169 13.464C7.09378 13.4195 7.24526 13.3342 7.36929 13.2115C7.42209 13.1594 7.4684 13.1021 7.50779 13.0408L12.8318 5.05475Z" fill="white"/>
</g>
</svg>
