<svg width="328" height="240" viewBox="0 0 328 240" fill="none" xmlns="http://www.w3.org/2000/svg">
<g clip-path="url(#clip0_1830_41701)">
<rect width="328" height="240" rx="20" fill="#F6F6EE"/>
<path d="M152.987 43.3463L68.7145 113.582C64.4591 117.129 62 122.373 62 127.902V234H268V127.902C268 122.373 265.541 117.129 261.285 113.582L177.013 43.3463C170.059 37.5512 159.941 37.5512 152.987 43.3463Z" fill="#BE5B31"/>
<path d="M235.5 92L251 105V169L235.5 187.5V92Z" fill="black" fill-opacity="0.2"/>
<path d="M83.5 -0.809526C83.5 -12.8855 91.5221 -22.5 101.222 -22.5H228.778C238.478 -22.5 246.5 -12.8855 246.5 -0.809525V187.81C246.5 199.885 238.478 209.5 228.778 209.5H101.222C91.5221 209.5 83.5 199.885 83.5 187.81V-0.809526Z" fill="url(#paint0_linear_1830_41701)" stroke="url(#paint1_linear_1830_41701)"/>
<path fill-rule="evenodd" clip-rule="evenodd" d="M247 249.141V148L166.302 199.373L83 148V252.502C82.9849 252.513 82.9698 252.525 82.9547 252.537L49.0533 272.879C49.0533 272.879 48.1318 272.718 53.9497 277.776C60.1152 283.137 71.0884 285.122 71.0884 285.122H110.266L110.262 285.117C110.439 285.12 110.616 285.122 110.793 285.122H240.738C259.353 285.122 266.344 261.07 250.558 251.335L247 249.141Z" fill="black" fill-opacity="0.2"/>
<path fill-rule="evenodd" clip-rule="evenodd" d="M62.1543 141.23V250.927C62.1543 266.073 74.5976 278.352 89.9472 278.352H91.5368C91.5375 278.352 91.5378 278.352 91.5378 278.352H130.715L130.715 278.352H239.696C255.235 278.352 267.832 266.073 267.832 250.927V141.23L166.551 205.613L62.1543 141.23Z" fill="#F18E64"/>
<path fill-rule="evenodd" clip-rule="evenodd" d="M134.992 134.556H194.995V149.832C198.663 152.334 201 156.121 201 160.359C201 167.897 193.609 174.003 184.489 174.003C181.467 174.003 178.637 173.333 176.201 172.164C175.037 171.604 173.69 171.604 172.526 172.164C170.09 173.333 167.259 174.003 164.237 174.003C161.456 174.003 158.834 173.435 156.535 172.43C155.471 171.968 154.269 171.968 153.209 172.43C150.911 173.435 148.288 174.003 145.507 174.003C136.387 174.003 128.996 167.897 128.996 160.359C128.996 156.124 131.33 152.34 134.992 149.838V134.556Z" fill="#F0F0E2"/>
<path d="M162.255 108.839L131.133 129.878C127.172 132.554 129.082 138.7 133.877 138.7H196.119C200.914 138.7 202.824 132.554 198.863 129.878L167.746 108.839C166.091 107.72 163.914 107.72 162.255 108.839Z" fill="#ED723D"/>
<path d="M148.427 165.248C148.124 165.248 147.822 165.153 147.561 164.959C146.92 164.482 146.787 163.58 147.267 162.941C149.996 159.305 147.375 155.647 147.263 155.495C146.791 154.857 146.928 153.955 147.57 153.481C148.211 153.008 149.114 153.139 149.59 153.774C151.001 155.656 152.823 160.355 149.59 164.663C149.304 165.042 148.869 165.244 148.427 165.244V165.248Z" fill="#C0C0B5"/>
<path d="M181.968 153.197C182.27 153.197 182.572 153.291 182.833 153.485C183.475 153.963 183.607 154.865 183.127 155.503C180.399 159.14 183.02 162.797 183.131 162.949C183.603 163.588 183.467 164.49 182.825 164.963C182.183 165.437 181.281 165.305 180.805 164.671C179.393 162.789 177.572 158.089 180.805 153.781C181.09 153.403 181.525 153.201 181.968 153.201L181.968 153.197Z" fill="#C0C0B5"/>
<path fill-rule="evenodd" clip-rule="evenodd" d="M165.013 149.94C163.485 152.388 160.878 153.46 157.92 153.46C153.217 153.46 149.4 150.75 149.4 144.107C149.4 137.463 153.217 133.341 157.92 133.341C160.878 133.341 163.485 134.971 165.013 137.834C166.541 134.971 169.148 133.341 172.106 133.341C176.809 133.341 180.625 137.463 180.625 144.107C180.625 150.75 176.809 153.46 172.106 153.46C169.148 153.46 166.541 152.388 165.013 149.94Z" fill="white"/>
<path d="M165.561 143.9C165.561 148.615 163.413 150.539 160.759 150.539C158.106 150.539 155.957 148.615 155.957 143.9C155.957 139.184 158.106 136.256 160.759 136.256C163.413 136.256 165.561 139.184 165.561 143.9Z" fill="#312C2C"/>
<path d="M180.179 143.9C180.179 148.615 178.03 150.539 175.376 150.539C172.723 150.539 170.574 148.615 170.574 143.9C170.574 139.184 172.723 136.256 175.376 136.256C178.03 136.256 180.179 139.184 180.179 143.9Z" fill="#312C2C"/>
<rect x="162" y="155" width="6" height="9" rx="3" fill="#F4AB8B"/>
<path d="M112.086 73.036H110.622V76.264H109.038V68.968H110.622V71.74H112.086V73.036ZM107.994 72.388C107.994 73.984 106.698 75.1 105.006 75.1C103.302 75.1 102.006 73.984 102.006 72.388C102.006 70.816 103.302 69.676 105.006 69.676C106.698 69.676 107.994 70.816 107.994 72.388ZM103.554 72.388C103.554 73.252 104.142 73.756 105.006 73.756C105.834 73.756 106.458 73.252 106.458 72.388C106.458 71.524 105.834 71.02 105.006 71.02C104.142 71.02 103.554 71.524 103.554 72.388ZM107.898 76.024C107.898 77.236 108.99 78.436 111.342 78.76L110.754 79.984C108.966 79.708 107.778 78.976 107.106 77.968C106.434 78.976 105.21 79.708 103.47 79.984L102.87 78.76C105.234 78.436 106.314 77.224 106.314 76.024V75.76H107.898V76.024ZM113.849 76.456L113.597 71.548L113.537 69.88H115.313L115.253 71.548L115.001 76.456H113.849ZM113.561 79.168V77.464H115.313V79.168H113.561ZM124.381 74.296C122.029 74.296 120.385 73.324 120.385 71.824C120.385 70.324 122.029 69.352 124.381 69.352C126.733 69.352 128.377 70.324 128.377 71.824C128.377 73.324 126.733 74.296 124.381 74.296ZM124.381 70.612C122.929 70.612 122.005 71.044 122.005 71.824C122.005 72.64 122.929 73.036 124.381 73.036C125.833 73.036 126.745 72.64 126.745 71.824C126.745 71.044 125.833 70.612 124.381 70.612ZM127.093 76.408V80.02H125.485V76.408H123.265V80.02H121.669V76.408H119.401V75.124H129.409V76.408H127.093ZM130.632 71.632V70.372H134.388V69.1H135.972V70.372H139.74V71.632H130.632ZM140.208 78.952H130.2V77.668H132.588V75.856C131.808 75.484 131.424 74.944 131.424 74.212C131.424 72.868 132.876 72.076 135.18 72.076C137.496 72.076 138.924 72.868 138.924 74.212C138.924 74.92 138.54 75.472 137.772 75.844V77.668H140.208V78.952ZM135.18 73.288C133.764 73.288 133.056 73.6 133.056 74.212C133.056 74.824 133.764 75.124 135.18 75.124C136.596 75.124 137.304 74.824 137.304 74.212C137.304 73.6 136.596 73.288 135.18 73.288ZM136.212 77.668V76.276C135.888 76.312 135.54 76.336 135.168 76.336C134.796 76.336 134.472 76.312 134.148 76.276V77.668H136.212ZM150.203 80.02H148.607V68.968H150.203V80.02ZM146.915 70.12C146.915 73.492 145.775 76.276 141.851 78.16L141.023 76.912C143.843 75.568 145.067 73.828 145.295 71.38H141.611V70.12H146.915ZM161.962 73.36H160.486V76.888H158.902V68.98H160.486V72.064H161.962V73.36ZM157.51 69.808C157.51 72.82 155.674 74.872 152.374 75.832L151.714 74.572C154.222 73.9 155.542 72.616 155.794 71.068H152.194V69.808H157.51ZM160.87 78.58V79.84H153.358V76.096H154.942V78.58H160.87ZM171.753 80.056H170.169V68.968H171.753V80.056ZM165.813 69.748C167.481 69.748 168.717 71.26 168.717 73.684C168.717 76.12 167.481 77.644 165.813 77.644C164.145 77.644 162.909 76.12 162.909 73.684C162.909 71.26 164.145 69.748 165.813 69.748ZM165.813 71.176C164.997 71.176 164.433 72.04 164.433 73.684C164.433 75.328 164.997 76.204 165.813 76.204C166.629 76.204 167.193 75.328 167.193 73.684C167.193 72.04 166.629 71.176 165.813 71.176ZM186.027 73.756H184.635V77.416H183.051V68.98H184.635V72.448H186.027V73.756ZM182.571 75.52C180.327 75.94 177.855 75.976 176.031 75.976L175.839 74.716C176.607 74.716 177.471 74.728 178.383 74.692V73.84C177.183 73.588 176.415 72.772 176.415 71.668C176.415 70.36 177.567 69.424 179.163 69.424C180.771 69.424 181.923 70.36 181.923 71.668C181.923 72.772 181.167 73.564 179.967 73.84V74.632C180.831 74.584 181.659 74.536 182.475 74.404L182.571 75.52ZM177.891 71.668C177.891 72.34 178.395 72.724 179.163 72.724C179.931 72.724 180.459 72.34 180.459 71.668C180.459 70.996 179.931 70.612 179.163 70.612C178.395 70.612 177.891 70.996 177.891 71.668ZM185.007 78.58V79.84H177.279V76.696H178.863V78.58H185.007ZM196.682 78.82H186.662V77.524H189.206V75.844H187.826V72.124H193.994V70.948H187.814V69.688H195.554V73.36H189.398V74.572H195.806V75.844H194.258V77.524H196.682V78.82ZM192.698 77.524V75.844H190.766V77.524H192.698ZM203.257 75.676V69.208H204.733V71.848H205.525V68.98H207.037V75.724H205.525V73.12H204.733V75.676H203.257ZM202.909 75.16C201.217 75.508 198.961 75.544 197.593 75.544L197.437 74.32C198.025 74.32 198.793 74.332 199.609 74.296V73.348H198.037V69.616H202.597V70.864H199.561V72.088H202.609V73.348H201.085V74.224C201.697 74.188 202.285 74.152 202.813 74.068L202.909 75.16ZM205.573 76.408C205.573 77.428 206.161 78.412 207.637 78.796L206.905 79.948C205.849 79.624 205.153 79.024 204.757 78.208C204.409 79.024 203.773 79.684 202.765 80.032C201.745 79.684 201.133 79.024 200.761 78.244C200.365 79.012 199.693 79.624 198.637 79.948L197.905 78.796C199.357 78.376 199.981 77.404 199.981 76.408V76.144H201.517V76.408C201.517 77.224 201.889 78.052 202.753 78.58C203.629 78.016 204.001 77.176 204.001 76.408V76.144H205.573V76.408ZM217.548 80.056H215.964V74.236H214.128C213.972 76.348 212.832 77.644 211.296 77.644C209.652 77.644 208.44 76.12 208.44 73.684C208.44 71.26 209.652 69.748 211.296 69.748C212.784 69.748 213.888 70.972 214.116 72.952H215.964V68.968H217.548V80.056ZM211.296 76.204C212.112 76.204 212.652 75.328 212.652 73.684C212.652 72.04 212.112 71.176 211.296 71.176C210.48 71.176 209.952 72.04 209.952 73.684C209.952 75.328 210.48 76.204 211.296 76.204ZM229.079 78.748H219.071V77.464H221.279V74.764C220.415 74.248 219.935 73.456 219.947 72.496C219.947 70.684 221.699 69.52 224.063 69.52C226.451 69.52 228.191 70.684 228.191 72.496C228.191 73.456 227.687 74.248 226.859 74.764V77.464H229.079V78.748ZM224.063 70.768C222.527 70.768 221.507 71.392 221.507 72.496C221.507 73.6 222.527 74.224 224.063 74.224C225.599 74.224 226.631 73.6 226.631 72.496C226.631 71.392 225.599 70.768 224.063 70.768ZM225.287 77.464V75.352C224.903 75.424 224.495 75.46 224.063 75.46C223.643 75.46 223.235 75.424 222.851 75.352V77.464H225.287ZM130.112 92.368V98.056H128.528V86.98H130.112V91.06H131.72V92.368H130.112ZM123.464 94.084C125.036 94.072 126.344 93.976 127.772 93.736L127.928 95.044C126.26 95.332 124.748 95.404 122.828 95.404H121.88V88H127.04V89.284H123.464V94.084ZM141.415 98.056H139.831V86.968H141.415V98.056ZM136.543 89.44C136.543 91.492 137.419 93.508 139.291 94.312L138.391 95.596C137.095 95.02 136.267 93.928 135.775 92.572C135.283 94.072 134.419 95.236 133.063 95.86L132.115 94.552C134.047 93.712 134.959 91.6 134.959 89.44V87.832H136.543V89.44ZM154.693 98.056H153.109V86.968H154.693V98.056ZM149.821 89.44C149.821 91.492 150.697 93.508 152.569 94.312L151.669 95.596C150.373 95.02 149.545 93.928 149.053 92.572C148.561 94.072 147.697 95.236 146.341 95.86L145.393 94.552C147.325 93.712 148.237 91.6 148.237 89.44V87.832H149.821V89.44ZM166.344 96.784H156.336V95.488H160.536V93.184H157.5V87.736H165.192V89.008H159.096V91.912H165.276V93.184H162.12V95.488H166.344V96.784ZM176.615 98.02H175.115V92.752H174.275V97.564H172.799V87.184H174.275V91.48H175.115V86.968H176.615V98.02ZM172.403 88.648V89.908H167.123V88.648H169.007V87.28H170.567V88.648H172.403ZM169.787 90.388C171.191 90.388 172.211 91.48 172.211 93.028C172.211 94.564 171.191 95.656 169.787 95.656C168.383 95.656 167.363 94.564 167.363 93.028C167.363 91.48 168.383 90.388 169.787 90.388ZM169.787 94.336C170.399 94.336 170.819 93.856 170.819 93.028C170.819 92.2 170.399 91.708 169.787 91.708C169.175 91.708 168.755 92.2 168.755 93.028C168.755 93.856 169.175 94.336 169.787 94.336ZM178.414 91.216C180.682 90.928 181.846 89.872 182.002 88.804H178.822V87.544H187.018V88.804H183.886C184.042 89.872 185.194 90.928 187.45 91.216L186.886 92.452C184.954 92.176 183.61 91.384 182.938 90.232C182.266 91.384 180.922 92.176 178.99 92.452L178.414 91.216ZM183.694 94.348V98.056H182.11V94.348H177.946V93.088H187.93V94.348H183.694ZM198.213 98.032H196.713V86.98H198.213V98.032ZM195.945 87.16V97.54H194.469V91.996H193.089V90.712H194.469V87.16H195.945ZM192.261 89.74C192.261 91.528 192.741 93.364 194.241 94.36L193.377 95.584C192.417 95.008 191.853 94.072 191.505 92.956C191.121 94.204 190.485 95.224 189.477 95.836L188.529 94.648C190.149 93.664 190.737 91.684 190.737 89.8V87.94H192.261V89.74ZM209.541 96.748H199.533V95.464H201.741V92.764C200.877 92.248 200.397 91.456 200.409 90.496C200.409 88.684 202.161 87.52 204.525 87.52C206.913 87.52 208.653 88.684 208.653 90.496C208.653 91.456 208.149 92.248 207.321 92.764V95.464H209.541V96.748ZM204.525 88.768C202.989 88.768 201.969 89.392 201.969 90.496C201.969 91.6 202.989 92.224 204.525 92.224C206.061 92.224 207.093 91.6 207.093 90.496C207.093 89.392 206.061 88.768 204.525 88.768ZM205.749 95.464V93.352C205.365 93.424 204.957 93.46 204.525 93.46C204.105 93.46 203.697 93.424 203.313 93.352V95.464H205.749Z" fill="#303030"/>
<path d="M196.235 136.739C197.182 138.585 196.982 140.966 196.982 140.966C196.982 140.966 196.982 145 192.5 145C188.018 145 188.018 140.966 188.018 140.966C188.018 140.966 187.818 138.585 188.765 136.739C189.246 135.8 190.252 134.54 191.099 133.555C191.843 132.691 193.157 132.691 193.901 133.555C194.748 134.54 195.754 135.8 196.235 136.739Z" fill="#A0C3DD"/>
</g>
<defs>
<linearGradient id="paint0_linear_1830_41701" x1="165" y1="-23" x2="247" y2="80" gradientUnits="userSpaceOnUse">
<stop stop-color="white" stop-opacity="0"/>
<stop offset="0.671" stop-color="#F6F6EE"/>
<stop offset="1" stop-color="white"/>
</linearGradient>
<linearGradient id="paint1_linear_1830_41701" x1="165" y1="-23" x2="165" y2="210" gradientUnits="userSpaceOnUse">
<stop offset="0.196" stop-color="white" stop-opacity="0"/>
<stop offset="1" stop-color="white"/>
</linearGradient>
<clipPath id="clip0_1830_41701">
<rect width="328" height="240" rx="20" fill="white"/>
</clipPath>
</defs>
</svg>
