<svg width="32" height="42" viewBox="0 0 32 42" fill="none" xmlns="http://www.w3.org/2000/svg">
<path fill-rule="evenodd" clip-rule="evenodd" d="M15.9996 29.8794C14.5284 32.2674 12.0176 33.313 9.16951 33.313C4.64073 33.313 0.965088 30.6694 0.965088 24.189C0.965088 17.7086 4.64073 13.687 9.16951 13.687C12.0176 13.687 14.5284 15.2776 15.9996 18.0701C17.4708 15.2776 19.9815 13.687 22.8297 13.687C27.3584 13.687 31.0341 17.7086 31.0341 24.189C31.0341 30.6694 27.3584 33.313 22.8297 33.313C19.9815 33.313 17.4708 32.2674 15.9996 29.8794Z" fill="white"/>
<path d="M17.0347 23.9925C17.0347 28.6148 14.7976 30.5 12.0347 30.5C9.27174 30.5 7.03467 28.6148 7.03467 23.9925C7.03467 19.3702 9.27174 16.5 12.0347 16.5C14.7976 16.5 17.0347 19.3702 17.0347 23.9925Z" fill="#312C2C"/>
<path d="M31.0347 23.9925C31.0347 28.6148 28.7976 30.5 26.0347 30.5C23.2717 30.5 21.0347 28.6148 21.0347 23.9925C21.0347 19.3702 23.2717 16.5 26.0347 16.5C28.7976 16.5 31.0347 19.3702 31.0347 23.9925Z" fill="#312C2C"/>
</svg>
