<svg width="24" height="24" viewBox="0 0 24 24" fill="none" xmlns="http://www.w3.org/2000/svg">
<rect width="24" height="24" fill="white"/>
<path fill-rule="evenodd" clip-rule="evenodd" d="M11.4019 3.2C11.7575 2.93333 12.2464 2.93333 12.6019 3.2L21.6019 9.95C22.3708 10.5266 21.963 11.75 21.0019 11.75H20.002V18.75C20.002 19.8546 19.1065 20.75 18.002 20.75H14V14.75C14 14.1977 13.5523 13.75 13 13.75H11C10.4477 13.75 10 14.1977 10 14.75V20.75H6.00195C4.89738 20.75 4.00195 19.8546 4.00195 18.75V11.75H3.00194C2.04093 11.75 1.63313 10.5266 2.40194 9.95L11.4019 3.2Z" fill="#C5C5C5"/>
</svg>
