<svg width="24" height="24" viewBox="0 0 24 24" fill="none" xmlns="http://www.w3.org/2000/svg">
<g id="Type=Social, Size=Default, State=Kakao">
<path id="Vector" fill-rule="evenodd" clip-rule="evenodd" d="M12.4286 3C7.224 3 3 6.28114 3 10.3166C3 12.834 4.63114 15.0309 7.12029 16.3697L6.07371 20.2071C6.05397 20.2835 6.05803 20.364 6.08536 20.438C6.11269 20.5119 6.16198 20.5758 6.22662 20.6209C6.29126 20.666 6.36815 20.6903 6.44699 20.6905C6.52583 20.6907 6.60285 20.6668 6.66771 20.622L11.25 17.5766C11.6366 17.5766 12.0326 17.6426 12.4286 17.6426C17.6331 17.6426 21.8571 14.3614 21.8571 10.3166C21.8571 6.27171 17.6331 3 12.4286 3Z" fill="black"/>
</g>
</svg>
