<svg width="32" height="32" viewBox="0 0 32 32" fill="none" xmlns="http://www.w3.org/2000/svg">
<rect width="32" height="32" rx="6" fill="#DDDDDD"/>
<path fill-rule="evenodd" clip-rule="evenodd" d="M8 8.5C8 5.46243 10.4624 3 13.5 3H18.5C21.5376 3 24 5.46243 24 8.5C24 9.05228 23.5523 9.5 23 9.5H22C21.4477 9.5 21 9.05228 21 8.5C21 7.11929 19.8807 6 18.5 6H13.5C12.1193 6 11 7.11929 11 8.5V12.5H8V8.5Z" fill="#B3B1AD"/>
<path d="M5 14C5 12.3431 6.34315 11 8 11H24C25.6569 11 27 12.3431 27 14V24C27 26.7614 24.7614 29 22 29H10C7.23858 29 5 26.7614 5 24V14Z" fill="#F18E64"/>
<path fill-rule="evenodd" clip-rule="evenodd" d="M17.238 19.5709C17.7021 19.2046 18 18.6371 18 18C18 16.8954 17.1046 16 16 16C14.8954 16 14 16.8954 14 18C14 18.6371 14.2979 19.2046 14.762 19.5709L14.2704 21.7831C14.1316 22.4076 14.6069 23 15.2466 23H16.7534C17.3931 23 17.8684 22.4076 17.7296 21.7831L17.238 19.5709Z" fill="white"/>
</svg>
