<svg width="100%" height="100%" viewBox="0 0 792 259" fill="none" xmlns="http://www.w3.org/2000/svg">
<path fill-rule="evenodd" clip-rule="evenodd" d="M75.6641 117.303H192.33V147.396C199.457 152.324 203.999 159.78 203.999 168.126C203.999 182.972 189.629 195 171.897 195C166.021 195 160.517 193.679 155.781 191.377C153.518 190.274 150.899 190.274 148.636 191.377C143.9 193.679 138.396 195 132.521 195C127.114 195 122.014 193.881 117.544 191.9C115.475 190.99 113.14 190.99 111.079 191.9C106.609 193.881 101.509 195 96.1023 195C78.3701 195 64 182.972 64 168.126C64 159.782 68.5395 152.328 75.6641 147.399V117.303Z" fill="#F0F0E2"/>
<path d="M128.665 66.6534L68.1555 108.09C60.4531 113.361 64.1666 125.466 73.4897 125.466H194.509C203.833 125.466 207.546 113.361 199.844 108.09L139.342 66.6534C136.124 64.4489 131.891 64.4489 128.665 66.6534Z" fill="#ED723D"/>
<path d="M101.776 177.755C101.189 177.755 100.601 177.568 100.094 177.187C98.8464 176.246 98.5889 174.47 99.5226 173.212C104.827 166.05 99.7318 158.846 99.5145 158.546C98.5969 157.289 98.8625 155.513 100.11 154.58C101.358 153.647 103.112 153.906 104.038 155.156C106.783 158.863 110.325 168.118 104.038 176.603C103.483 177.349 102.638 177.747 101.776 177.747V177.755Z" fill="#ED723D"/>
<path fill-rule="evenodd" clip-rule="evenodd" d="M134.016 147.602C131.046 152.424 125.976 154.535 120.225 154.535C111.081 154.535 103.66 149.198 103.66 136.113C103.66 123.029 111.081 114.909 120.225 114.909C125.976 114.909 131.046 118.121 134.016 123.76C136.987 118.121 142.056 114.909 147.807 114.909C156.951 114.909 164.373 123.029 164.373 136.113C164.373 149.198 156.951 154.535 147.807 154.535C142.056 154.535 136.987 152.424 134.016 147.602Z" fill="white"/>
<path d="M135.1 135.707C135.1 144.995 130.922 148.783 125.763 148.783C120.603 148.783 116.426 144.995 116.426 135.707C116.426 126.419 120.603 120.652 125.763 120.652C130.922 120.652 135.1 126.419 135.1 135.707Z" fill="#312C2C"/>
<path d="M163.514 135.707C163.514 144.995 159.336 148.783 154.177 148.783C149.017 148.783 144.84 144.995 144.84 135.707C144.84 126.419 149.017 120.652 154.177 120.652C159.336 120.652 163.514 126.419 163.514 135.707Z" fill="#312C2C"/>
<path d="M245.418 66.168C250.634 66.168 255.009 70.5435 255.009 75.7594C255.009 80.9753 250.634 85.1867 245.418 85.1867C240.202 85.1867 236 80.9753 236 75.7594C236 70.5435 240.202 66.168 245.418 66.168ZM237.169 192.538V108.571H253.657V192.538H237.169Z" fill="black"/>
<path d="M334.261 192.538V143.064C334.261 130.952 324.67 121.186 312.557 121.186C300.445 121.186 291.018 130.44 290.515 142.224V192.538H274.027V108.572H290.515V116.985C296.745 110.426 305.487 106.215 315.59 106.215C334.937 106.215 350.759 121.524 350.759 141.722V192.538H334.271H334.261Z" fill="black"/>
<path d="M447.316 171.008C439.405 185.816 426.452 193.553 410.805 193.553C387.748 193.553 370.082 176.388 370.082 154.685C370.082 136.342 379.335 123.051 395.321 117.835C390.608 111.779 387.41 104.708 387.41 97.8119C387.41 79.1312 401.716 65 421.063 65C440.41 65 454.377 78.1267 454.377 96.4693C454.377 112.957 442.264 126.76 427.621 127.6L443.945 143.924L461.611 112.793L476.255 120.868L455.893 155.873L483.325 183.131L471.541 194.741L447.306 171.018L447.316 171.008ZM407.936 130.788C396.326 132.971 387.072 139.365 387.072 154.685C387.072 168.149 397.842 178.079 410.795 178.079C422.908 178.079 430.316 170.168 435.194 158.732L407.936 130.798V130.788ZM418.542 114.3C431.494 114.3 437.386 105.385 437.386 96.4596C437.386 87.5346 429.978 80.4738 421.063 80.4738C410.631 80.4738 404.401 88.8869 404.401 97.8022C404.401 104.699 409.452 110.427 413.992 114.29H418.532L418.542 114.3Z" fill="black"/>
<path d="M535.69 194.731C510.451 194.731 490.254 175.383 490.254 150.473C490.254 125.562 510.451 106.215 535.69 106.215C560.929 106.215 581.127 125.562 581.127 150.473C581.127 175.383 560.929 194.731 535.69 194.731ZM535.69 179.759C552.352 179.759 564.127 166.13 564.127 150.482C564.127 134.835 552.352 121.206 535.69 121.206C519.028 121.206 507.254 134.835 507.254 150.482C507.254 166.13 519.038 179.759 535.69 179.759Z" fill="black"/>
<path d="M613.943 108.572V158.384C613.943 171.173 622.694 179.75 634.305 179.75C645.915 179.75 654.502 171.173 654.502 158.384V108.572H670.99V192.539H654.502V184.126C648.61 190.858 640.197 194.731 630.779 194.731C612.098 194.731 597.465 179.422 597.465 159.06V108.582H613.953L613.943 108.572Z" fill="black"/>
<path d="M707.162 124.055V164.101C707.162 172.35 712.378 177.054 718.936 177.054H727.185V192.538H718.936C703.288 192.538 690.664 181.266 690.664 164.266V86.3652H707.152V108.581H727.175V124.065H707.152L707.162 124.055Z" fill="black"/>
</svg>

