<svg width="328" height="240" viewBox="0 0 328 240" fill="none" xmlns="http://www.w3.org/2000/svg">
<g clip-path="url(#clip0_1355_27396)">
<rect width="328" height="240" rx="20" fill="#FAFAF4"/>
<rect y="27" width="269" height="8" fill="#F0F0E2"/>
<path d="M152.987 61.3463L68.7145 131.582C64.4591 135.129 62 140.373 62 145.902V252H268V145.902C268 140.373 265.541 135.129 261.285 131.582L177.013 61.3463C170.059 55.5512 159.941 55.5512 152.987 61.3463Z" fill="#BE5B31"/>
<path d="M235.5 110L251 123V187L235.5 205.5V110Z" fill="black" fill-opacity="0.2"/>
<path d="M83 87.9524C83 77.4853 91.1584 69 101.222 69H228.778C238.842 69 247 77.4853 247 87.9524V249.048C247 259.515 238.842 268 228.778 268H101.222C91.1584 268 83 259.515 83 249.048V87.9524Z" fill="white"/>
<path fill-rule="evenodd" clip-rule="evenodd" d="M247 267.141V166L166.302 217.373L83 166V270.502C82.9849 270.513 82.9698 270.525 82.9547 270.537L49.0533 290.879C49.0533 290.879 48.1318 290.718 53.9497 295.776C60.1152 301.137 71.0884 303.122 71.0884 303.122H110.266L110.262 303.117C110.439 303.12 110.616 303.122 110.793 303.122H240.738C259.353 303.122 266.344 279.07 250.558 269.335L247 267.141Z" fill="black" fill-opacity="0.2"/>
<path fill-rule="evenodd" clip-rule="evenodd" d="M62.1543 159.23V268.927C62.1543 284.073 74.5976 296.352 89.9472 296.352H91.5368C91.5375 296.352 91.5378 296.352 91.5378 296.352H130.715L130.715 296.352H239.697C255.236 296.352 267.833 284.073 267.833 268.927V159.23L166.551 223.613L62.1543 159.23Z" fill="#F18E64"/>
<path fill-rule="evenodd" clip-rule="evenodd" d="M134.993 152.556H194.996V167.832C198.663 170.335 201 174.121 201 178.359C201 185.897 193.609 192.003 184.489 192.003C181.467 192.003 178.637 191.333 176.201 190.164C175.037 189.604 173.69 189.604 172.526 190.164C170.09 191.333 167.259 192.003 164.237 192.003C161.456 192.003 158.834 191.435 156.535 190.43C155.471 189.968 154.269 189.968 153.209 190.43C150.911 191.435 148.288 192.003 145.507 192.003C136.387 192.003 128.996 185.897 128.996 178.359C128.996 174.124 131.33 170.34 134.993 167.838V152.556Z" fill="#F0F0E2"/>
<path d="M162.255 126.839L131.134 147.878C127.172 150.554 129.082 156.7 133.877 156.7H196.12C200.915 156.7 202.825 150.554 198.863 147.878L167.746 126.839C166.091 125.72 163.914 125.72 162.255 126.839Z" fill="#ED723D"/>
<path d="M148.427 183.248C148.125 183.248 147.822 183.153 147.562 182.959C146.92 182.482 146.787 181.58 147.268 180.941C149.996 177.305 147.375 173.647 147.263 173.495C146.792 172.857 146.928 171.955 147.57 171.481C148.211 171.008 149.114 171.139 149.59 171.774C151.002 173.656 152.823 178.355 149.59 182.663C149.304 183.042 148.87 183.244 148.427 183.244V183.248Z" fill="#ED723D"/>
<path fill-rule="evenodd" clip-rule="evenodd" d="M165.013 167.94C163.485 170.388 160.878 171.46 157.92 171.46C153.218 171.46 149.401 168.75 149.401 162.107C149.401 155.463 153.218 151.341 157.92 151.341C160.878 151.341 163.485 152.971 165.013 155.834C166.541 152.971 169.148 151.341 172.106 151.341C176.809 151.341 180.625 155.463 180.625 162.107C180.625 168.75 176.809 171.46 172.106 171.46C169.148 171.46 166.541 170.388 165.013 167.94Z" fill="white"/>
<path d="M165.561 161.9C165.561 166.615 163.412 168.539 160.759 168.539C158.105 168.539 155.956 166.615 155.956 161.9C155.956 157.184 158.105 154.256 160.759 154.256C163.412 154.256 165.561 157.184 165.561 161.9Z" fill="#312C2C"/>
<path d="M180.178 161.9C180.178 166.615 178.029 168.539 175.376 168.539C172.722 168.539 170.573 166.615 170.573 161.9C170.573 157.184 172.722 154.256 175.376 154.256C178.029 154.256 180.178 157.184 180.178 161.9Z" fill="#312C2C"/>
<path d="M136.076 98.032H134.492V86.98H136.076V98.032ZM127.136 89.44V88.204H129.668V87.016H131.252V88.204H133.772V89.44H127.136ZM131.252 94.828C132.164 94.78 133.052 94.732 133.916 94.6L134.036 95.74C131.624 96.184 129.056 96.196 127.112 96.196L126.92 94.912C127.748 94.912 128.66 94.924 129.668 94.888V93.952C128.468 93.724 127.712 92.98 127.712 91.96C127.712 90.712 128.84 89.872 130.46 89.872C132.056 89.872 133.196 90.712 133.196 91.96C133.196 92.98 132.452 93.724 131.252 93.952V94.828ZM129.224 91.96C129.224 92.524 129.728 92.836 130.46 92.836C131.228 92.836 131.696 92.524 131.696 91.96C131.696 91.384 131.228 91.072 130.46 91.072C129.728 91.072 129.224 91.384 129.224 91.96ZM145.375 86.98H146.959V95.356H145.375V94.48H143.299V93.4H145.375V86.98ZM141.175 91.3C139.555 91.3 138.415 90.508 138.415 89.332C138.415 88.144 139.555 87.352 141.175 87.352C142.771 87.352 143.923 88.144 143.923 89.332C143.923 90.508 142.771 91.3 141.175 91.3ZM141.175 88.504C140.407 88.504 139.915 88.792 139.915 89.332C139.915 89.872 140.407 90.148 141.175 90.148C141.907 90.148 142.423 89.872 142.423 89.332C142.423 88.792 141.907 88.504 141.175 88.504ZM147.199 97.84H139.003V94.552H140.539V93.076C139.567 93.124 138.643 93.136 137.815 93.136L137.611 91.876C139.627 91.876 142.315 91.828 144.643 91.54L144.751 92.668C143.887 92.824 143.023 92.92 142.111 92.98V95.068H140.587V96.58H147.199V97.84ZM157.11 92.5V98.008H155.526V86.968H157.11V91.192H158.658V92.5H157.11ZM154.17 88.108C154.17 91.432 152.922 94.264 149.238 96.124L148.35 94.912C150.93 93.58 152.286 91.852 152.574 89.392H148.962V88.108H154.17ZM168.437 92.92H166.841V86.98H168.437V92.92ZM162.425 87.436C164.141 87.436 165.425 88.528 165.425 90.04C165.425 91.576 164.141 92.656 162.425 92.656C160.709 92.656 159.413 91.576 159.413 90.04C159.413 88.528 160.709 87.436 162.425 87.436ZM162.425 88.744C161.561 88.744 160.961 89.224 160.961 90.04C160.961 90.868 161.561 91.348 162.425 91.348C163.289 91.348 163.877 90.868 163.877 90.04C163.877 89.224 163.289 88.744 162.425 88.744ZM162.665 94.432H166.865V93.4H168.437V97.9H161.093V93.4H162.665V94.432ZM166.865 96.652V95.644H162.665V96.652H166.865ZM175.048 90.904C172.444 90.904 171.052 90.268 171.052 89.02C171.052 87.808 172.444 87.136 175.048 87.136C177.676 87.136 179.056 87.808 179.056 89.02C179.056 90.268 177.676 90.904 175.048 90.904ZM175.048 88.3C173.452 88.3 172.696 88.528 172.696 89.02C172.696 89.536 173.452 89.752 175.048 89.752C176.692 89.752 177.412 89.536 177.412 89.02C177.412 88.528 176.692 88.3 175.048 88.3ZM180.04 92.668H170.056V91.432H180.04V92.668ZM179.116 96.76V97.948H171.208V95.044H177.268V94.456H171.196V93.292H178.828V96.136H172.78V96.76H179.116ZM192.586 98.02H191.002V86.98H192.586V98.02ZM186.922 92.14C185.254 92.14 184.018 91.168 184.018 89.788C184.018 88.396 185.254 87.424 186.922 87.424C188.59 87.424 189.814 88.396 189.814 89.788C189.814 91.168 188.59 92.14 186.922 92.14ZM186.922 88.708C186.106 88.708 185.542 89.068 185.542 89.788C185.542 90.46 186.106 90.844 186.922 90.844C187.738 90.844 188.302 90.46 188.302 89.788C188.302 89.068 187.738 88.708 186.922 88.708ZM190.474 93.568C189.562 93.748 188.674 93.856 187.762 93.94V97.696H186.178V94.036C185.218 94.072 184.33 94.084 183.55 94.084L183.37 92.788C185.29 92.788 188.038 92.764 190.378 92.416L190.474 93.568ZM194.133 89.38V88.144H196.581V86.968H198.177V88.144H200.649L200.637 89.38H194.133ZM204.297 91.66H202.833V95.248H201.249V86.98H202.833V90.352H204.297V91.66ZM200.097 91.9C200.097 93.172 198.957 94.036 197.385 94.036C195.789 94.036 194.673 93.172 194.673 91.9C194.673 90.652 195.789 89.776 197.385 89.776C198.957 89.776 200.097 90.652 200.097 91.9ZM196.185 91.9C196.185 92.512 196.665 92.836 197.385 92.836C198.105 92.836 198.585 92.512 198.585 91.9C198.585 91.288 198.105 90.976 197.385 90.976C196.665 90.976 196.185 91.288 196.185 91.9ZM203.229 96.58V97.84H195.705V94.636H197.289V96.58H203.229ZM121.373 110.5V116.008H119.789V104.968H121.373V109.192H122.921V110.5H121.373ZM118.433 106.108C118.433 109.432 117.185 112.264 113.501 114.124L112.613 112.912C115.193 111.58 116.549 109.852 116.837 107.392H113.225V106.108H118.433ZM133.684 108.82H132.22V111.544H130.636V104.98H132.22V107.524H133.684V108.82ZM129.352 111.22C128.14 110.848 127.3 110.128 126.82 109.216C126.328 110.32 125.452 111.184 124.156 111.604L123.364 110.368C125.152 109.756 125.932 108.376 125.968 106.984H123.772V105.712H129.748V106.984H127.588C127.624 108.244 128.368 109.48 130.108 109.996L129.352 111.22ZM128.608 111.736C130.912 111.736 132.34 112.54 132.34 113.896C132.34 115.24 130.912 116.032 128.608 116.032C126.292 116.032 124.864 115.24 124.864 113.896C124.864 112.54 126.292 111.736 128.608 111.736ZM128.608 114.82C130.012 114.82 130.768 114.52 130.768 113.896C130.768 113.26 130.012 112.96 128.608 112.96C127.156 112.96 126.436 113.272 126.436 113.896C126.436 114.508 127.156 114.82 128.608 114.82ZM145.45 110.452V116.032H143.866V104.992H145.45V109.144H147.058V110.452H145.45ZM142.414 106.024V113.344H137.134V106.024H142.414ZM140.854 112.096V107.272H138.694V112.096H140.854ZM156.753 116.032H155.169V104.98H156.753V116.032ZM151.869 107.956C151.869 109.756 152.757 111.664 154.605 112.432L153.741 113.68C152.445 113.116 151.581 112.072 151.089 110.716C150.597 112.168 149.709 113.368 148.413 113.956L147.513 112.696C149.373 111.868 150.261 109.84 150.261 107.956V107.344H147.957V106.036H154.149V107.344H151.869V107.956ZM167.096 108.904V111.532H165.512V104.98H167.096V107.608H168.56V108.904H167.096ZM158.72 110.92V105.76H163.988V110.92H158.72ZM160.268 107.008V109.672H162.428V107.008H160.268ZM167.096 112.024V116.044H165.512V113.284H159.716V112.024H167.096ZM179.33 104.98H180.914V110.596H179.33V108.496H177.65V107.236H179.33V104.98ZM177.53 110.608C176.282 110.26 175.478 109.54 174.986 108.628C174.494 109.636 173.618 110.464 172.322 110.836L171.578 109.6C173.294 109.096 174.11 107.776 174.17 106.648H171.998V105.388H177.938V106.648H175.778C175.814 107.752 176.594 108.892 178.262 109.372L177.53 110.608ZM181.226 115.912H173.642V112.876H179.342V112.264H173.618V111.04H180.914V114.016H175.202V114.688H181.226V115.912ZM191.125 110.584V116.032H189.541V104.992H191.125V109.276H192.733V110.584H191.125ZM186.469 108.424C186.469 109.984 187.249 111.772 188.977 112.6L188.137 113.8C186.937 113.26 186.169 112.252 185.701 111.004C185.221 112.36 184.381 113.428 183.133 113.992L182.281 112.78C184.069 111.952 184.897 110.092 184.897 108.424V108.04H182.653V106.78H184.897V105.244H186.481V106.78H188.665V108.04H186.469V108.424ZM202.752 116.02H201.252V104.968H202.752V116.02ZM200.532 105.16V115.528H199.056V112.108H197.796C197.376 113.176 196.68 113.788 195.768 113.788C194.292 113.788 193.368 112.276 193.368 109.768C193.368 107.272 194.292 105.76 195.768 105.76C196.68 105.76 197.364 106.348 197.784 107.416H199.056V105.16H200.532ZM195.768 112.3C196.38 112.3 196.74 111.46 196.74 109.768C196.74 108.076 196.38 107.248 195.768 107.248C195.144 107.248 194.784 108.076 194.784 109.768C194.784 111.46 195.144 112.3 195.768 112.3ZM199.056 108.688H198.084C198.132 109.024 198.156 109.384 198.156 109.768C198.156 110.14 198.132 110.5 198.096 110.824H199.056V108.688ZM214.079 114.748H204.071V113.464H206.279V110.764C205.415 110.248 204.935 109.456 204.947 108.496C204.947 106.684 206.699 105.52 209.063 105.52C211.451 105.52 213.191 106.684 213.191 108.496C213.191 109.456 212.687 110.248 211.859 110.764V113.464H214.079V114.748ZM209.063 106.768C207.527 106.768 206.507 107.392 206.507 108.496C206.507 109.6 207.527 110.224 209.063 110.224C210.599 110.224 211.631 109.6 211.631 108.496C211.631 107.392 210.599 106.768 209.063 106.768ZM210.287 113.464V111.352C209.903 111.424 209.495 111.46 209.063 111.46C208.643 111.46 208.235 111.424 207.851 111.352V113.464H210.287ZM215.998 112.456L215.746 107.548L215.686 105.88H217.462L217.402 107.548L217.15 112.456H215.998ZM215.71 115.168V113.464H217.462V115.168H215.71Z" fill="#303030"/>
<rect x="50.5" y="17" width="28" height="28" rx="14" fill="#C0C0B5"/>
<path d="M66.0269 37.5H64.8929C64.7849 37.5 64.7129 37.428 64.7129 37.302V26.394L62.1569 27.87C62.0489 27.924 61.9769 27.906 61.9049 27.78L61.6709 27.384C61.6169 27.294 61.6349 27.204 61.7249 27.132L65.0009 24.378C65.0729 24.306 65.1449 24.288 65.2349 24.288H66.0269C66.1349 24.288 66.2069 24.36 66.2069 24.468V37.302C66.2069 37.428 66.1349 37.5 66.0269 37.5Z" fill="white"/>
<rect x="150.5" y="17" width="28" height="28" rx="14" fill="#C0C0B5"/>
<path d="M168.672 37.5H160.32C160.194 37.5 160.122 37.428 160.122 37.302V36.978C160.122 36.888 160.158 36.816 160.212 36.744L163.416 33.198C166.278 30.066 166.782 29.022 166.782 27.672C166.782 26.322 165.756 25.512 164.28 25.512C162.894 25.512 161.886 26.25 161.418 27.618C161.382 27.726 161.292 27.78 161.184 27.744L160.122 27.456C159.996 27.438 159.942 27.348 159.978 27.222C160.626 25.206 162.192 24.036 164.334 24.036C166.71 24.036 168.33 25.44 168.33 27.546C168.33 29.238 167.826 30.588 164.496 34.098L162.642 36.078H168.672C168.78 36.078 168.852 36.15 168.852 36.258V37.302C168.852 37.428 168.78 37.5 168.672 37.5Z" fill="white"/>
<rect x="250.5" y="17" width="28" height="28" rx="14" fill="#ED723D"/>
<path d="M264.441 37.752C262.263 37.752 260.463 36.474 259.905 34.188C259.869 34.062 259.923 33.99 260.031 33.972L261.075 33.684C261.183 33.666 261.273 33.702 261.309 33.81C261.795 35.43 262.911 36.276 264.441 36.276C266.187 36.276 267.393 35.16 267.393 33.684C267.393 32.19 266.241 31.236 264.459 31.236H263.739C263.631 31.236 263.559 31.164 263.559 31.038V30.102C263.559 29.994 263.631 29.922 263.739 29.922H264.495C266.025 29.922 267.087 28.968 267.087 27.744C267.087 26.448 265.953 25.512 264.405 25.512C262.947 25.512 261.903 26.358 261.507 27.618C261.471 27.726 261.381 27.78 261.273 27.744L260.211 27.456C260.085 27.42 260.049 27.348 260.085 27.222C260.625 25.296 262.281 24.036 264.423 24.036C266.853 24.036 268.653 25.512 268.653 27.51C268.653 28.878 267.807 30.03 266.367 30.534C267.987 31.002 268.941 32.19 268.941 33.846C268.941 36.06 267.105 37.752 264.441 37.752Z" fill="white"/>
</g>
<defs>
<clipPath id="clip0_1355_27396">
<rect width="328" height="240" rx="20" fill="white"/>
</clipPath>
</defs>
</svg>
