<svg width="328" height="240" viewBox="0 0 328 240" fill="none" xmlns="http://www.w3.org/2000/svg">
<g clip-path="url(#clip0_1355_27431)">
<rect width="328" height="240" rx="20" fill="#FAFAF4"/>
<rect y="203" width="344" height="48" fill="#C0C0B5"/>
<circle cx="143.5" cy="98.5" r="10.5" fill="white"/>
<path fill-rule="evenodd" clip-rule="evenodd" d="M39.9732 142.11H159.973V172.648C167.318 177.652 172 185.23 172 193.713C172 208.787 157.219 221 138.98 221C132.937 221 127.275 219.66 122.404 217.322C120.076 216.202 117.383 216.202 115.055 217.322C110.184 219.66 104.522 221 98.4787 221C92.9172 221 87.6716 219.864 83.0745 217.853C80.9463 216.929 78.5438 216.929 76.424 217.853C71.8268 219.864 66.5812 221 61.0197 221C42.7807 221 28 208.787 28 193.713C28 185.25 32.659 177.689 39.9732 172.685V142.11Z" fill="#F0F0E2"/>
<path d="M66.849 203.491C66.2446 203.491 65.6402 203.301 65.1186 202.914C63.8353 201.959 63.5704 200.155 64.5308 198.878C69.9868 191.605 64.7461 184.291 64.5225 183.987C63.5787 182.71 63.8519 180.906 65.1352 179.959C66.4185 179.012 68.2233 179.275 69.1754 180.544C71.9986 184.308 75.6415 193.706 69.1754 202.321C68.6042 203.079 67.7349 203.482 66.849 203.482V203.491Z" fill="#ED723D"/>
<path fill-rule="evenodd" clip-rule="evenodd" d="M32.2742 132.753L94.5133 90.6789C97.8312 88.4404 102.185 88.4404 105.495 90.6789L133.013 109.284V104.251C133.013 103.284 133.797 102.501 134.763 102.501H152.263C153.23 102.501 154.013 103.284 154.013 104.251V123.482L167.726 132.753C175.648 138.104 171.829 150.396 162.239 150.396H37.7609C28.1713 150.396 24.3517 138.104 32.2742 132.753Z" fill="#ED723D"/>
<path fill-rule="evenodd" clip-rule="evenodd" d="M100.017 172.882C96.9613 177.774 91.7487 179.916 85.8357 179.916C76.4306 179.916 68.7971 174.496 68.7971 161.211C68.7971 147.925 76.4306 139.681 85.8357 139.681C91.7487 139.681 96.9613 142.939 100.017 148.661C103.073 142.939 108.286 139.681 114.198 139.681C123.604 139.681 131.237 147.925 131.237 161.211C131.237 174.496 123.604 179.916 114.198 179.916C108.286 179.916 103.073 177.774 100.017 172.882Z" fill="white"/>
<path d="M101.111 160.796C101.111 170.227 96.8137 174.073 91.5067 174.073C86.1997 174.073 81.9028 170.227 81.9028 160.796C81.9028 151.365 86.1997 145.509 91.5067 145.509C96.8137 145.509 101.111 151.365 101.111 160.796Z" fill="#312C2C"/>
<path d="M130.334 160.796C130.334 170.227 126.037 174.073 120.73 174.073C115.423 174.073 111.126 170.227 111.126 160.796C111.126 151.365 115.423 145.509 120.73 145.509C126.037 145.509 130.334 151.365 130.334 160.796Z" fill="#312C2C"/>
<rect x="170" y="60" width="80" height="45" rx="22.5" fill="white"/>
<rect x="208" y="-26" width="176" height="79" rx="39.5" fill="white"/>
<path d="M172.866 95.0274L167.104 97.5444C166.928 97.6212 166.77 97.5593 166.693 97.3834L159.891 81.812C159.814 81.6361 159.876 81.4781 160.052 81.4012L165.595 78.9803C169.465 77.2895 171.971 78.2901 173.019 80.6873C173.71 82.2709 173.526 83.9487 172.334 85.1766C174.598 84.8426 176.244 85.8522 177.051 87.6997C178.29 90.5368 177.221 93.1253 172.866 95.0274ZM163.946 83.0004L165.579 86.7393L168.328 85.5384C170.022 84.7987 170.733 83.7286 170.195 82.4969C169.666 81.2873 168.389 81.0598 166.695 81.7995L163.946 83.0004ZM166.751 89.4224L168.576 93.6012L171.743 92.2178C173.723 91.3532 174.452 90.1443 173.856 88.7807C173.27 87.4391 171.897 87.1745 169.918 88.0391L166.751 89.4224Z" fill="#C0C0B5"/>
<path d="M247.699 56.9377L240.016 60.2937C239.781 60.3962 239.57 60.3136 239.468 60.079L230.399 39.3172C230.297 39.0826 230.379 38.8719 230.614 38.7695L238.004 35.5416C243.165 33.2872 246.506 34.6213 247.902 37.8176C248.824 39.929 248.579 42.1661 246.99 43.8033C250.008 43.358 252.202 44.7042 253.278 47.1674C254.931 50.9503 253.505 54.4015 247.699 56.9377ZM235.805 40.9017L237.983 45.8868L241.648 44.2857C243.906 43.2994 244.855 41.8726 244.137 40.2304C243.433 38.6176 241.729 38.3142 239.471 39.3005L235.805 40.9017ZM239.546 49.4644L241.979 55.0361L246.202 53.1916C248.841 52.0388 249.813 50.4269 249.019 48.6088C248.238 46.82 246.407 46.4671 243.768 47.6199L239.546 49.4644Z" fill="#575751"/>
<path d="M194.879 110.323L192.464 109.691C192.279 109.642 192.193 109.495 192.241 109.31L196.644 92.5008C196.693 92.3151 196.84 92.2294 197.025 92.2781L199.44 92.9105C199.626 92.9592 199.711 93.1057 199.663 93.2914L195.26 110.1C195.211 110.286 195.065 110.372 194.879 110.323Z" fill="#C0C0B5"/>
<path d="M271.522 39.3309L268.303 38.4876C268.055 38.4227 267.941 38.2274 268.006 37.9798L273.876 15.5679C273.941 15.3203 274.137 15.206 274.384 15.2709L277.604 16.1142C277.851 16.179 277.966 16.3744 277.901 16.622L272.03 39.0339C271.965 39.2815 271.77 39.3958 271.522 39.3309Z" fill="#575751"/>
<path d="M216.588 80.515C213.115 81.2599 210.356 79.1517 209.556 75.4206C208.756 71.6894 210.408 68.635 213.881 67.8901C215.57 67.5278 217.129 67.9298 218.254 68.9404L218.033 67.5642C217.987 67.353 218.108 67.2289 218.296 67.1887L220.502 66.7156C220.689 66.6753 220.832 66.7675 220.872 66.9552L223.348 78.5007C223.389 78.6884 223.296 78.8309 223.109 78.8712L220.903 79.3443C220.715 79.3845 220.554 79.3208 220.509 79.1097L220.147 77.7637C219.535 79.1467 218.278 80.1527 216.588 80.515ZM216.746 77.585C218.693 77.1672 219.719 75.4254 219.271 73.3369C218.823 71.2484 217.173 70.0804 215.226 70.4981C213.278 70.9158 212.252 72.6576 212.7 74.7461C213.148 76.8346 214.798 78.0027 216.746 77.585Z" fill="#C0C0B5"/>
<path d="M296.21 61.32C291.474 61.32 288.466 57.8 288.466 52.712C288.466 47.624 291.474 44.104 296.21 44.104C298.514 44.104 300.434 45.064 301.618 46.696L301.714 44.84C301.714 44.552 301.906 44.424 302.162 44.424H305.17C305.426 44.424 305.586 44.584 305.586 44.84V60.584C305.586 60.84 305.426 61 305.17 61H302.162C301.906 61 301.714 60.872 301.714 60.584L301.618 58.728C300.434 60.36 298.514 61.32 296.21 61.32ZM297.234 57.544C299.89 57.544 301.714 55.56 301.714 52.712C301.714 49.864 299.89 47.88 297.234 47.88C294.578 47.88 292.754 49.864 292.754 52.712C292.754 55.56 294.578 57.544 297.234 57.544Z" fill="#575751"/>
</g>
<defs>
<clipPath id="clip0_1355_27431">
<rect width="328" height="240" rx="20" fill="white"/>
</clipPath>
</defs>
</svg>
