<svg width="80" height="80" viewBox="0 0 80 80" fill="none" xmlns="http://www.w3.org/2000/svg">
<rect width="80" height="80" rx="12" fill="#F2F2F1"/>
<path fill-rule="evenodd" clip-rule="evenodd" d="M52 22V27C52 27.5523 52.4477 28 53 28H58C59.1046 28 60 28.8954 60 30V35C60 35.5523 60.4477 36 61 36H67C67.5523 36 68 36.4477 68 37V56C68 59.3137 65.3137 62 62 62H14C10.6863 62 8 59.3137 8 56V26C8 22.6863 10.6863 20 14 20H51C51.5523 20 52 20.4477 52 21V22Z" fill="#C5C5C5"/>
<rect x="55" y="21" width="20" height="4" rx="2" fill="#C5C5C5"/>
<rect x="67" y="13" width="20" height="4" rx="2" transform="rotate(90 67 13)" fill="#C5C5C5"/>
<path d="M60 58H16C13.7909 58 12 56.2091 12 54V50.0226C12 49.3804 12.3084 48.7773 12.829 48.4013L19.829 43.3457C20.528 42.8409 21.472 42.8409 22.171 43.3457L29.7524 48.8212C29.8986 48.9268 30.0974 48.9214 30.2377 48.8082L47.4419 34.9283C48.1258 34.3766 49.0896 34.3359 49.8176 34.8278L63.1199 43.8175C63.6702 44.1894 64 44.8103 64 45.4746V54C64 56.2091 62.2091 58 60 58Z" fill="#F2F2F1"/>
<circle cx="21" cy="30" r="6" fill="#F2F2F1"/>
</svg>
