<svg width="32" height="32" viewBox="0 0 32 32" fill="none" xmlns="http://www.w3.org/2000/svg">
<rect width="32" height="32" rx="6" fill="#DDDDDD"/>
<path d="M20.4614 7.78306C20.8963 6.98222 21.9076 6.67632 22.6345 7.22594C24.1262 8.35387 25.3133 9.84959 26.0723 11.5786C27.0535 13.8139 27.2633 16.3121 26.6686 18.6798C26.0739 21.0474 24.7085 23.15 22.7874 24.6563C20.8663 26.1626 18.4988 26.9871 16.0576 26.9998C13.6164 27.0126 11.2403 26.213 9.30361 24.7269C7.36687 23.2408 5.97952 21.1526 5.36005 18.7913C4.74058 16.43 4.92419 13.9297 5.88197 11.6843C6.62281 9.94742 7.79425 8.43936 9.27403 7.29588C9.99511 6.73868 11.0096 7.03397 11.4528 7.83022C11.896 8.62646 11.5939 9.61979 10.9101 10.2222C10.0538 10.9766 9.37052 11.9166 8.91738 12.979C8.24694 14.5508 8.11841 16.301 8.55203 17.9539C8.98566 19.6068 9.95681 21.0685 11.3125 22.1088C12.6682 23.1491 14.3315 23.7088 16.0403 23.6999C17.7491 23.6909 19.4064 23.1138 20.7512 22.0594C22.0959 21.005 23.0517 19.5332 23.468 17.8758C23.8843 16.2185 23.7375 14.4697 23.0506 12.905C22.5864 11.8475 21.8933 10.9146 21.0291 10.1692C20.3391 9.57401 20.0266 8.5839 20.4614 7.78306Z" fill="#B3B1AD"/>
<rect x="14" y="3" width="4" height="12" rx="2" fill="#B3B1AD"/>
</svg>

