<svg width="32" height="32" viewBox="0 0 32 32" fill="none" xmlns="http://www.w3.org/2000/svg">
<rect width="32" height="32" rx="6" fill="#DDDDDD"/>
<ellipse cx="16" cy="20.5" rx="13" ry="3.5" fill="#B3B1AD"/>
<mask id="mask0_1058_8143" style="mask-type:alpha" maskUnits="userSpaceOnUse" x="3" y="6" width="26" height="18">
<path fill-rule="evenodd" clip-rule="evenodd" d="M29 6H3V20C3 20.0871 3.01114 20.1716 3.03208 20.2522C3.01081 20.3341 3 20.4167 3 20.5C3 22.433 8.8203 24 16 24C23.1797 24 29 22.433 29 20.5C29 20.4167 28.9892 20.3341 28.9679 20.2522C28.9889 20.1716 29 20.0871 29 20V6Z" fill="#D9D9D9"/>
</mask>
<g mask="url(#mask0_1058_8143)">
<path fill-rule="evenodd" clip-rule="evenodd" d="M7.24936 14.0953H24.7493V18.609C25.8186 19.3482 26.4999 20.4666 26.4999 21.7186C26.4999 23.9455 24.3444 25.7497 21.6846 25.7497C20.8032 25.7497 19.9776 25.5516 19.2672 25.2062C18.9277 25.0408 18.5349 25.0408 18.1955 25.2062C17.4851 25.5516 16.6595 25.7497 15.7781 25.7497C14.9671 25.7497 14.2021 25.5818 13.5317 25.2847C13.2213 25.1483 12.871 25.1483 12.5618 25.2847C11.8914 25.5818 11.1264 25.7497 10.3154 25.7497C7.65552 25.7497 5.5 23.9455 5.5 21.7186C5.5 20.4671 6.18082 19.3491 7.24936 18.6099V14.0953Z" fill="#F0F0E2"/>
<path d="M15.1998 6.49801L6.12332 12.7135C4.96796 13.504 5.52499 15.3198 6.92346 15.3198H25.0765C26.475 15.3198 27.032 13.504 25.8766 12.7135L16.8013 6.49801C16.3186 6.16733 15.6837 6.16733 15.1998 6.49801Z" fill="#ED723D"/>
<path d="M11.1684 23.1626C11.0803 23.1626 10.9921 23.1346 10.9161 23.0774C10.7289 22.9363 10.6903 22.6698 10.8303 22.4812C11.626 21.4068 10.8617 20.3263 10.8291 20.2813C10.6915 20.0927 10.7313 19.8262 10.9185 19.6863C11.1056 19.5464 11.3688 19.5853 11.5077 19.7727C11.9194 20.3288 12.4506 21.7171 11.5077 22.9898C11.4244 23.1017 11.2976 23.1614 11.1684 23.1614V23.1626Z" fill="#F4AB8B"/>
<path d="M10.9346 16.7493C10.7335 16.8954 10.6868 17.1797 10.8613 17.3567C11.0866 17.5852 11.3479 17.7769 11.6356 17.9235C12.0574 18.1384 12.5241 18.2505 12.9976 18.2505C13.471 18.2505 13.9377 18.1384 14.3595 17.9235C14.6472 17.7769 14.9085 17.5852 15.1339 17.3567C15.3083 17.1797 15.2616 16.8954 15.0606 16.7493C14.8595 16.6032 14.5807 16.6524 14.3952 16.8178C14.2612 16.9373 14.112 17.0395 13.9509 17.1215C13.6557 17.272 13.329 17.3504 12.9976 17.3504C12.6662 17.3504 12.3395 17.272 12.0442 17.1215C11.8831 17.0395 11.7339 16.9373 11.6 16.8178C11.4145 16.6524 11.1356 16.6032 10.9346 16.7493Z" fill="#BCAF9F"/>
<path d="M16.937 16.7488C16.7359 16.8949 16.6892 17.1792 16.8637 17.3562C17.0891 17.5848 17.3503 17.7764 17.638 17.923C18.0599 18.1379 18.5266 18.25 19 18.25C19.4734 18.25 19.9401 18.1379 20.362 17.923C20.6497 17.7764 20.911 17.5848 21.1363 17.3562C21.3108 17.1792 21.2641 16.8949 21.063 16.7488C20.8619 16.6027 20.5831 16.6519 20.3976 16.8173C20.2636 16.9368 20.1144 17.039 19.9534 17.1211C19.6581 17.2715 19.3314 17.3499 19 17.3499C18.6686 17.3499 18.3419 17.2715 18.0466 17.1211C17.8856 17.039 17.7364 16.9368 17.6024 16.8173C17.4169 16.6519 17.1381 16.6027 16.937 16.7488Z" fill="#BCAF9F"/>
</g>
</svg>
