<svg width="32" height="32" viewBox="0 0 32 32" fill="none" xmlns="http://www.w3.org/2000/svg">
<rect width="32" height="32" rx="6" fill="#DDDDDD"/>
<path d="M19.6085 21.7298C19.0227 21.1441 19.0227 20.1943 19.6085 19.6085C20.1943 19.0227 21.144 19.0227 21.7298 19.6085L23.9497 21.8284C24.3403 22.219 24.3403 22.8521 23.9497 23.2427L23.2426 23.9498C22.8521 24.3403 22.219 24.3403 21.8284 23.9498L19.6085 21.7298Z" fill="#B3B1AD"/>
<path d="M21.1212 24.6568C20.7306 24.2663 20.7306 23.6331 21.1212 23.2426L23.2425 21.1213C23.633 20.7308 24.2662 20.7308 24.6567 21.1213L28.4225 24.887C29.2035 25.6681 29.2035 26.9344 28.4225 27.7155L27.7154 28.4226C26.9343 29.2036 25.668 29.2036 24.8869 28.4226L21.1212 24.6568Z" fill="#848484"/>
<circle cx="13.5" cy="13.5" r="9.5" fill="white"/>
<path d="M24 13.5C24 19.299 19.299 24 13.5 24C7.70101 24 3 19.299 3 13.5C3 7.70101 7.70101 3 13.5 3C19.299 3 24 7.70101 24 13.5ZM5.1 13.5C5.1 18.1392 8.86081 21.9 13.5 21.9C18.1392 21.9 21.9 18.1392 21.9 13.5C21.9 8.86081 18.1392 5.1 13.5 5.1C8.86081 5.1 5.1 8.86081 5.1 13.5Z" fill="#B3B1AD"/>
<path d="M12.7145 8.44203C13.0536 7.85266 13.9464 7.85266 14.2855 8.44203L15.387 10.3567C15.5157 10.5804 15.7436 10.7374 16.0078 10.7843L18.2692 11.1857C18.9653 11.3093 19.2412 12.1141 18.7546 12.6019L17.174 14.1867C16.9894 14.3718 16.9023 14.6258 16.9369 14.8785L17.233 17.0413C17.3241 17.707 16.6019 18.2045 15.9621 17.9166L13.8837 16.9813C13.6409 16.8721 13.3591 16.8721 13.1163 16.9813L11.0379 17.9166C10.3981 18.2045 9.67589 17.707 9.76702 17.0413L10.0631 14.8785C10.0977 14.6258 10.0106 14.3718 9.82596 14.1867L8.24538 12.6019C7.75884 12.1141 8.03472 11.3093 8.73082 11.1857L10.9922 10.7843C11.2564 10.7374 11.4843 10.5804 11.613 10.3567L12.7145 8.44203Z" fill="#F9D183"/>
</svg>
