<svg width="328" height="240" viewBox="0 0 328 240" fill="none" xmlns="http://www.w3.org/2000/svg">
<rect width="328" height="240" rx="20" fill="#F6F6EE"/>
<rect x="33.1379" y="36.328" width="110.527" height="185.546" rx="11" transform="rotate(-8.57262 33.1379 36.328)" fill="#F9F6EE" stroke="#C0C0B5" stroke-width="2"/>
<circle cx="105.805" cy="147.644" r="11.2527" transform="rotate(-8.57262 105.805 147.644)" fill="#FDDC85"/>
<mask id="mask0_1023_33208" style="mask-type:alpha" maskUnits="userSpaceOnUse" x="94" y="136" width="24" height="23">
<circle cx="105.805" cy="147.644" r="11.2527" transform="rotate(-8.57262 105.805 147.644)" fill="#FDDC85"/>
</mask>
<g mask="url(#mask0_1023_33208)">
<path d="M119.555 150.787L92.4993 150.598L90.9617 140.398L117.388 136.415L119.555 150.787Z" fill="#DA9039"/>
</g>
<path fill-rule="evenodd" clip-rule="evenodd" d="M95.7398 80.8818C93.6914 81.1906 92.2812 83.1015 92.59 85.1499C92.6122 85.2976 92.5269 85.4437 92.3843 85.4881C80.2127 89.2734 72.292 101.475 74.2506 114.468L78.1644 140.43C78.1644 140.431 78.1642 140.431 78.164 140.431C75.0913 140.894 72.976 143.76 73.4391 146.833C73.9023 149.906 76.7687 152.021 79.8413 151.558L131.767 143.73C134.84 143.267 136.955 140.401 136.492 137.328C135.765 132.501 129.501 128.691 128.773 123.864L126.177 106.64C124.218 93.6471 113.051 84.322 100.304 84.2939C100.155 84.2936 100.03 84.1793 100.008 84.0317C99.6992 81.9833 97.7883 80.573 95.7398 80.8818Z" fill="#FDDC85"/>
<path d="M87.8801 143.919C87.5532 143.969 87.2108 143.915 86.8972 143.749C86.1251 143.336 85.8347 142.382 86.2501 141.614C88.6082 137.235 85.1772 133.706 85.0314 133.559C84.4168 132.946 84.4175 131.948 85.0344 131.331C85.6513 130.714 86.649 130.709 87.2674 131.318C89.1014 133.124 91.8381 137.91 89.0431 143.097C88.7959 143.554 88.3586 143.843 87.8794 143.915L87.8801 143.919Z" fill="#DA9039"/>
<path fill-rule="evenodd" clip-rule="evenodd" d="M103.323 124.656C102.069 127.553 99.4239 129.138 96.2246 129.62C91.1374 130.387 86.5666 128.078 85.4833 120.892C84.4 113.706 87.8567 108.624 92.9439 107.857C96.1432 107.375 99.2294 108.713 101.349 111.56C102.535 108.215 105.089 106.026 108.288 105.544C113.376 104.777 118.177 108.614 119.26 115.8C120.343 122.986 116.656 126.54 111.569 127.307C108.37 127.789 105.375 127.055 103.323 124.656Z" fill="white"/>
<path d="M102.935 118.032C103.704 123.133 101.694 125.564 98.8231 125.997C95.9526 126.43 93.3148 124.7 92.5458 119.599C91.7768 114.497 93.6235 110.979 96.494 110.547C99.3645 110.114 102.166 112.931 102.935 118.032Z" fill="#312C2C"/>
<path d="M118.743 115.649C119.512 120.75 117.501 123.181 114.631 123.614C111.76 124.047 109.122 122.317 108.353 117.215C107.584 112.114 109.431 108.596 112.302 108.164C115.172 107.731 117.974 110.548 118.743 115.649Z" fill="#312C2C"/>
<rect x="71.7836" y="35.1812" width="33.7582" height="9.37728" rx="4.68864" transform="rotate(-8.57262 71.7836 35.1812)" fill="#C0C0B5"/>
<rect x="95.9282" y="207.929" width="37.5091" height="1.87546" rx="0.937728" transform="rotate(-8.57262 95.9282 207.929)" fill="#DEDED8"/>
<path fill-rule="evenodd" clip-rule="evenodd" d="M191 36C171.67 36 156 51.67 156 71C156 76.3744 157.211 81.4659 159.376 86.0164C153.314 88.2928 149 94.1426 149 101C149 109.837 156.163 117 165 117C172.656 117 179.057 111.622 180.63 104.438C183.907 105.453 187.389 106 191 106H261C280.33 106 296 90.33 296 71C296 51.67 280.33 36 261 36H191Z" fill="white"/>
<circle cx="143" cy="119" r="6" fill="white"/>
<path d="M196.38 57.256H195.168C195.06 57.256 195.012 57.196 195.012 57.112V51.616C195.012 51.52 195.06 51.46 195.168 51.46H196.38C196.5 51.46 196.548 51.52 196.548 51.616V57.112C196.548 57.196 196.5 57.256 196.38 57.256ZM190.704 57.112C188.988 57.112 187.752 56.044 187.752 54.484C187.752 52.912 188.988 51.844 190.704 51.844C192.42 51.844 193.656 52.912 193.656 54.484C193.656 56.056 192.42 57.112 190.704 57.112ZM190.704 55.828C191.508 55.828 192.156 55.3 192.156 54.484C192.156 53.656 191.508 53.128 190.704 53.128C189.9 53.128 189.252 53.656 189.252 54.484C189.252 55.3 189.9 55.828 190.704 55.828ZM196.392 62.008H189.78C189.672 62.008 189.624 61.948 189.624 61.852V57.928C189.624 57.832 189.672 57.772 189.78 57.772H196.392C196.5 57.772 196.548 57.832 196.548 57.928V61.852C196.548 61.948 196.5 62.008 196.392 62.008ZM191.16 59.068V60.7H195.012V59.068H191.16ZM205.761 51.46H206.973C207.093 51.46 207.141 51.52 207.141 51.616V61.864C207.141 61.96 207.093 62.008 206.973 62.008H205.761C205.653 62.008 205.605 61.96 205.605 61.864V51.616C205.605 51.52 205.653 51.46 205.761 51.46ZM204.633 58.288C204.729 58.36 204.717 58.468 204.645 58.54L203.925 59.38C203.853 59.44 203.769 59.44 203.673 59.38C202.665 58.576 201.861 57.652 201.453 56.836C201.009 57.712 200.181 58.708 199.125 59.548C199.029 59.62 198.933 59.62 198.873 59.548L198.141 58.708C198.069 58.636 198.069 58.528 198.153 58.468C199.593 57.316 200.649 55.876 200.649 53.872V52.564C200.649 52.48 200.697 52.42 200.805 52.42H202.029C202.125 52.42 202.173 52.48 202.173 52.564V53.872C202.173 55.816 203.361 57.28 204.633 58.288ZM218.992 51.46H220.204C220.324 51.46 220.372 51.52 220.372 51.616V61.864C220.372 61.96 220.324 62.008 220.204 62.008H218.992C218.884 62.008 218.836 61.96 218.836 61.864V51.616C218.836 51.52 218.884 51.46 218.992 51.46ZM215.836 52.36H217.036C217.144 52.36 217.192 52.42 217.192 52.504V59.2C217.192 59.296 217.144 59.356 217.036 59.356H211.948C211.828 59.356 211.792 59.296 211.792 59.2V52.504C211.792 52.42 211.828 52.36 211.948 52.36H213.16C213.256 52.36 213.304 52.42 213.304 52.504V54.652H215.68V52.504C215.68 52.42 215.728 52.36 215.836 52.36ZM213.304 56.008V57.988H215.68V56.008H213.304ZM230.797 56.62H229.585C229.477 56.62 229.429 56.56 229.429 56.476V51.616C229.429 51.52 229.477 51.46 229.585 51.46H230.797C230.917 51.46 230.965 51.52 230.965 51.616V56.476C230.965 56.56 230.917 56.62 230.797 56.62ZM227.629 56.392H222.541C222.421 56.392 222.385 56.332 222.385 56.248V52.18C222.385 52.072 222.421 52.012 222.541 52.012H227.629C227.737 52.012 227.785 52.072 227.785 52.18V56.248C227.785 56.332 227.737 56.392 227.629 56.392ZM223.897 53.272V55.144H226.273V53.272H223.897ZM231.085 62.044H224.185C224.089 62.044 224.041 61.996 224.041 61.9V59.14C224.041 59.056 224.089 58.984 224.185 58.984H229.441V58.36H224.161C224.065 58.36 224.017 58.3 224.017 58.204V57.304C224.017 57.208 224.065 57.148 224.161 57.148H230.809C230.917 57.148 230.965 57.208 230.965 57.304V60.028C230.965 60.124 230.905 60.184 230.797 60.184H225.565V60.82H231.085C231.193 60.82 231.253 60.868 231.253 60.976V61.9C231.253 61.996 231.193 62.044 231.085 62.044ZM238.319 55.24V57.136C238.319 57.232 238.271 57.292 238.175 57.292H233.075C232.967 57.292 232.919 57.232 232.919 57.136V52.252C232.919 52.168 232.967 52.108 233.075 52.108H234.275C234.383 52.108 234.431 52.168 234.431 52.252V53.392H236.819V52.252C236.819 52.168 236.867 52.108 236.975 52.108H238.175C238.271 52.108 238.319 52.168 238.319 52.252V53.932H240.023V51.616C240.023 51.52 240.071 51.46 240.179 51.46H241.391C241.511 51.46 241.559 51.52 241.559 51.616V59.068C241.559 59.152 241.511 59.212 241.391 59.212H240.179C240.071 59.212 240.023 59.152 240.023 59.068V55.24H238.319ZM234.431 54.64V55.996H236.819V54.64H234.431ZM236.219 60.544H241.631C241.739 60.544 241.787 60.592 241.787 60.7V61.744C241.787 61.84 241.739 61.9 241.631 61.9H234.851C234.731 61.9 234.695 61.84 234.695 61.744V58.396C234.695 58.3 234.731 58.252 234.851 58.252H236.075C236.171 58.252 236.219 58.3 236.219 58.396V60.544ZM251.997 53.872H244.005C243.897 53.872 243.861 53.812 243.861 53.716V52.708C243.861 52.612 243.897 52.54 244.005 52.54H247.233V51.604C247.233 51.508 247.281 51.448 247.377 51.448H248.625C248.733 51.448 248.781 51.508 248.781 51.604V52.54H251.997C252.105 52.54 252.153 52.612 252.153 52.708V53.716C252.153 53.812 252.105 53.872 251.997 53.872ZM248.769 59.644H252.921C253.029 59.644 253.077 59.704 253.077 59.8V60.856C253.077 60.94 253.029 61 252.921 61H243.081C242.985 61 242.937 60.94 242.937 60.856V59.8C242.937 59.704 242.985 59.644 243.081 59.644H247.245V58.636C245.697 58.456 244.665 57.724 244.665 56.464C244.665 55.012 246.045 54.232 247.989 54.232C249.945 54.232 251.349 55.012 251.349 56.464C251.349 57.712 250.305 58.444 248.769 58.624V59.644ZM246.165 56.464C246.165 57.088 246.909 57.46 248.001 57.46C249.093 57.46 249.849 57.088 249.849 56.464C249.849 55.828 249.093 55.456 248.001 55.456C246.909 55.456 246.165 55.828 246.165 56.464ZM262.231 55.168H263.755C263.875 55.168 263.923 55.228 263.923 55.336V56.38C263.923 56.476 263.875 56.536 263.755 56.536H262.231V61.864C262.231 61.96 262.183 62.008 262.063 62.008H260.839C260.743 62.008 260.695 61.96 260.695 61.864V51.616C260.695 51.52 260.743 51.46 260.839 51.46H262.063C262.183 51.46 262.231 51.52 262.231 51.616V55.168ZM254.323 52.588H259.015C259.123 52.588 259.171 52.648 259.171 52.744V54.184C259.171 56.5 257.731 58.24 254.695 59.74C254.587 59.788 254.515 59.776 254.467 59.692L253.903 58.696C253.843 58.6 253.867 58.528 253.963 58.48C256.543 57.22 257.623 55.996 257.623 54.184V53.944H254.323C254.215 53.944 254.179 53.896 254.179 53.8V52.744C254.179 52.648 254.215 52.588 254.323 52.588ZM205.148 70.028H206.924V67.616C206.924 67.52 206.972 67.46 207.08 67.46H208.292C208.412 67.46 208.46 67.52 208.46 67.616V75.008C208.46 75.104 208.412 75.152 208.292 75.152H207.08C206.972 75.152 206.924 75.104 206.924 75.008V71.348H205.148C205.04 71.348 204.992 71.288 204.992 71.18V70.196C204.992 70.088 205.04 70.028 205.148 70.028ZM202.676 71.984C202.112 72.692 201.26 73.304 200.252 73.76C200.168 73.808 200.048 73.784 200 73.712L199.472 72.812C199.412 72.716 199.412 72.608 199.508 72.56C200.912 71.912 201.908 71.156 201.908 70.148V69.464H199.94C199.832 69.464 199.784 69.404 199.784 69.32V68.276C199.784 68.192 199.832 68.132 199.94 68.132H205.34C205.448 68.132 205.496 68.192 205.496 68.276V69.32C205.496 69.404 205.448 69.464 205.34 69.464H203.432V70.148C203.432 71.096 204.236 71.684 205.664 72.308C205.76 72.344 205.76 72.452 205.712 72.536L205.232 73.46C205.184 73.544 205.076 73.532 204.98 73.496C204.116 73.16 203.264 72.632 202.676 71.984ZM203.012 76.544H208.532C208.64 76.544 208.688 76.592 208.688 76.7V77.744C208.688 77.84 208.64 77.9 208.532 77.9H201.632C201.524 77.9 201.476 77.84 201.476 77.744V74.444C201.476 74.348 201.524 74.288 201.632 74.288H202.796C202.904 74.288 203.012 74.348 203.012 74.444V76.544ZM218.537 69.524H220.061C220.181 69.524 220.229 69.584 220.229 69.68V70.724C220.229 70.82 220.181 70.88 220.061 70.88H218.537V72.476C218.537 72.56 218.489 72.62 218.369 72.62H217.145C217.049 72.62 217.001 72.56 217.001 72.476V67.616C217.001 67.52 217.049 67.46 217.145 67.46H218.369C218.489 67.46 218.537 67.52 218.537 67.616V69.524ZM216.077 72.044C215.177 72.236 213.893 72.332 212.561 72.332H210.509C210.401 72.332 210.353 72.272 210.353 72.188V68.168C210.353 68.072 210.401 68.012 210.509 68.012H215.489C215.597 68.012 215.645 68.072 215.645 68.168V69.116C215.645 69.212 215.597 69.272 215.489 69.272H211.853V71.096H212.801C213.713 71.096 214.865 71 215.873 70.808C215.969 70.796 216.041 70.832 216.065 70.952L216.209 71.864C216.221 71.96 216.197 72.008 216.077 72.044ZM213.125 76.82H218.777C218.873 76.82 218.933 76.868 218.933 76.976V77.9C218.933 77.996 218.873 78.044 218.777 78.044H211.757C211.649 78.044 211.613 77.996 211.613 77.9V75.14C211.613 75.056 211.649 74.984 211.757 74.984H217.013V74.36H211.733C211.637 74.36 211.589 74.3 211.589 74.204V73.304C211.589 73.208 211.637 73.148 211.733 73.148H218.381C218.489 73.148 218.537 73.208 218.537 73.304V76.028C218.537 76.124 218.477 76.184 218.369 76.184H213.125V76.82ZM227.523 73.64H226.323C226.227 73.64 226.191 73.556 226.191 73.46V67.724C226.191 67.64 226.239 67.58 226.335 67.58H227.523C227.631 67.58 227.679 67.64 227.679 67.724V70.016H228.531V67.616C228.531 67.52 228.579 67.46 228.675 67.46H229.887C229.995 67.46 230.031 67.52 230.031 67.616V73.484C230.031 73.58 229.995 73.64 229.887 73.64H228.675C228.579 73.64 228.531 73.58 228.531 73.484V71.324H227.679V73.484C227.679 73.58 227.631 73.64 227.523 73.64ZM225.699 73.388C224.835 73.58 223.563 73.664 222.591 73.664H220.407C220.299 73.664 220.251 73.604 220.251 73.508V72.596C220.251 72.512 220.299 72.452 220.407 72.452H222.303H222.411V71.528H220.971C220.863 71.528 220.815 71.468 220.815 71.384V68.024C220.815 67.928 220.863 67.88 220.983 67.88H225.147C225.255 67.88 225.303 67.928 225.303 68.024V68.96C225.303 69.056 225.255 69.104 225.147 69.104H222.255V70.292H225.267C225.375 70.292 225.411 70.352 225.411 70.448V71.384C225.411 71.468 225.375 71.528 225.267 71.528H223.875V72.404C224.487 72.368 225.087 72.308 225.543 72.212C225.663 72.188 225.699 72.224 225.723 72.344L225.831 73.184C225.843 73.292 225.819 73.364 225.699 73.388ZM230.475 76.94C230.571 77 230.559 77.108 230.499 77.18L229.827 78.044C229.767 78.128 229.671 78.104 229.575 78.044C228.915 77.576 228.243 76.952 227.883 76.352C227.511 76.94 226.827 77.588 226.059 78.116C225.975 78.188 225.891 78.188 225.795 78.128C224.991 77.588 224.379 76.976 224.019 76.364C223.671 76.964 223.059 77.588 222.303 78.116C222.207 78.2 222.111 78.2 222.051 78.116L221.379 77.276C221.319 77.192 221.307 77.096 221.379 77.036C222.531 76.268 223.227 75.452 223.227 74.504V74.36C223.227 74.264 223.275 74.216 223.383 74.216H224.559C224.667 74.216 224.715 74.264 224.715 74.36V74.504C224.715 75.344 225.195 75.884 225.927 76.484C226.623 75.968 227.151 75.332 227.151 74.504V74.324C227.151 74.24 227.199 74.18 227.307 74.18H228.483C228.579 74.18 228.627 74.24 228.627 74.324V74.504C228.627 75.428 229.407 76.208 230.475 76.94ZM238.861 67.46H240.073C240.193 67.46 240.241 67.52 240.241 67.616V77.864C240.241 77.96 240.193 78.008 240.073 78.008H238.861C238.753 78.008 238.705 77.96 238.705 77.864V72.644H237.325C237.121 74.612 235.957 75.644 234.361 75.644C232.597 75.644 231.373 74.384 231.373 71.996C231.373 69.62 232.597 68.36 234.361 68.36C235.957 68.36 237.109 69.368 237.325 71.288H238.705V67.616C238.705 67.52 238.753 67.46 238.861 67.46ZM234.361 74.276C235.249 74.276 235.837 73.52 235.837 71.996C235.837 70.484 235.249 69.716 234.361 69.716C233.473 69.716 232.885 70.484 232.885 71.996C232.885 73.52 233.473 74.276 234.361 74.276ZM249.371 75.644H251.603C251.711 75.644 251.759 75.704 251.759 75.8V76.856C251.759 76.94 251.711 77 251.603 77H241.763C241.667 77 241.619 76.94 241.619 76.856V75.8C241.619 75.704 241.667 75.644 241.763 75.644H244.007V73.148C243.299 72.68 242.855 71.96 242.855 70.988C242.855 69.056 244.607 68.144 246.683 68.144C248.759 68.144 250.523 69.056 250.523 70.988C250.523 71.96 250.079 72.668 249.371 73.136V75.644ZM246.683 69.488C245.363 69.488 244.379 69.944 244.379 70.988C244.379 72.02 245.363 72.488 246.683 72.488C248.015 72.488 248.987 72.008 248.987 70.988C248.987 69.944 248.015 69.488 246.683 69.488ZM245.531 73.724V75.644H247.835V73.736C247.475 73.796 247.079 73.832 246.683 73.832C246.287 73.832 245.891 73.796 245.531 73.724Z" fill="#303030"/>
<path d="M191.448 88.204H192.294C192.33 88.204 192.354 88.228 192.354 88.27V88.576C192.354 88.618 192.33 88.636 192.294 88.636H191.448V91.408C191.448 91.45 191.436 91.474 191.388 91.474H191.04C191.004 91.474 190.98 91.45 190.98 91.408V86.326C190.98 86.29 191.004 86.266 191.04 86.266H191.388C191.436 86.266 191.448 86.29 191.448 86.326V88.204ZM187.662 86.842H189.93C189.978 86.842 189.996 86.866 189.996 86.896V87.448C189.996 88.708 189.234 89.578 187.722 90.334C187.686 90.352 187.656 90.346 187.632 90.31L187.47 90.028C187.446 89.986 187.458 89.956 187.494 89.938C188.85 89.278 189.516 88.558 189.516 87.448V87.268H187.662C187.62 87.268 187.602 87.244 187.602 87.208V86.896C187.602 86.866 187.62 86.842 187.662 86.842ZM196.601 86.266H196.943C196.991 86.266 197.009 86.29 197.009 86.326V89.044C197.009 89.074 196.991 89.098 196.943 89.098H196.601C196.559 89.098 196.535 89.074 196.535 89.044V86.326C196.535 86.29 196.559 86.266 196.601 86.266ZM195.617 87.73C195.617 88.462 195.047 88.984 194.207 88.984C193.361 88.984 192.797 88.462 192.797 87.73C192.797 86.998 193.361 86.464 194.207 86.464C195.047 86.464 195.617 86.998 195.617 87.73ZM193.259 87.73C193.259 88.216 193.631 88.576 194.207 88.576C194.783 88.576 195.155 88.216 195.155 87.73C195.155 87.238 194.783 86.878 194.207 86.878C193.631 86.878 193.259 87.238 193.259 87.73ZM196.601 89.38H196.949C196.991 89.38 197.009 89.404 197.009 89.44V91.402C197.009 91.444 196.991 91.468 196.949 91.468H193.799C193.757 91.468 193.733 91.444 193.733 91.402V89.44C193.733 89.404 193.757 89.38 193.799 89.38H194.147C194.183 89.38 194.201 89.404 194.201 89.44V90.004H196.547V89.44C196.547 89.404 196.565 89.38 196.601 89.38ZM194.201 90.4V91.072H196.547V90.4H194.201ZM202.042 88.396H202.888C202.924 88.396 202.948 88.42 202.948 88.462V88.768C202.948 88.804 202.924 88.828 202.888 88.828H202.042V91.408C202.042 91.45 202.03 91.474 201.982 91.474H201.634C201.598 91.474 201.574 91.45 201.574 91.408V86.326C201.574 86.29 201.598 86.266 201.634 86.266H201.982C202.03 86.266 202.042 86.29 202.042 86.326V88.396ZM199.696 87.232H201.028C201.064 87.232 201.082 87.256 201.082 87.292V87.592C201.082 87.622 201.064 87.646 201.028 87.646H197.89C197.854 87.646 197.836 87.622 197.836 87.592V87.292C197.836 87.256 197.854 87.232 197.89 87.232H199.222V86.494C199.222 86.458 199.24 86.434 199.288 86.434H199.63C199.672 86.434 199.696 86.458 199.696 86.494V87.232ZM199.462 88.108C200.254 88.108 200.776 88.594 200.776 89.344C200.776 90.088 200.254 90.568 199.462 90.568C198.67 90.568 198.154 90.088 198.154 89.344C198.154 88.594 198.67 88.108 199.462 88.108ZM199.462 90.172C199.996 90.172 200.314 89.818 200.314 89.344C200.314 88.858 199.996 88.504 199.462 88.504C198.934 88.504 198.61 88.858 198.61 89.344C198.61 89.818 198.934 90.172 199.462 90.172ZM207.537 90.094H207.195C207.153 90.094 207.129 90.07 207.129 90.04V86.326C207.129 86.29 207.153 86.266 207.195 86.266H207.537C207.585 86.266 207.603 86.29 207.603 86.326V90.04C207.603 90.07 207.585 90.094 207.537 90.094ZM204.873 87.916C204.663 88.42 204.243 88.858 203.571 89.266C203.535 89.29 203.499 89.29 203.475 89.26L203.289 89.002C203.265 88.966 203.265 88.924 203.301 88.906C204.081 88.444 204.627 87.85 204.627 87.04V86.584C204.627 86.548 204.645 86.524 204.687 86.524H205.035C205.077 86.524 205.095 86.548 205.095 86.584V87.04C205.095 87.814 205.641 88.36 206.367 88.774C206.409 88.798 206.409 88.828 206.385 88.87L206.211 89.14C206.187 89.176 206.157 89.176 206.115 89.152C205.533 88.81 205.077 88.366 204.873 87.916ZM204.777 90.988H207.681C207.729 90.988 207.747 91.012 207.747 91.054V91.354C207.747 91.39 207.729 91.414 207.681 91.414H204.369C204.321 91.414 204.309 91.39 204.309 91.354V89.674C204.309 89.632 204.321 89.614 204.369 89.614H204.717C204.753 89.614 204.777 89.632 204.777 89.674V90.988ZM214.055 86.266H214.403C214.439 86.266 214.457 86.29 214.457 86.326V91.408C214.457 91.45 214.439 91.474 214.403 91.474H214.055C214.013 91.474 213.989 91.45 213.989 91.408V86.326C213.989 86.29 214.013 86.266 214.055 86.266ZM212.873 86.38H213.215C213.251 86.38 213.269 86.404 213.269 86.446V91.246C213.269 91.288 213.251 91.312 213.215 91.312H212.873C212.831 91.312 212.813 91.288 212.813 91.246V88.624H212.015V90.124C212.015 90.16 211.997 90.184 211.955 90.184H209.981C209.939 90.184 209.921 90.16 209.921 90.124V86.854C209.921 86.818 209.939 86.794 209.981 86.794H211.955C211.997 86.794 212.015 86.818 212.015 86.854V88.192H212.813V86.446C212.813 86.404 212.831 86.38 212.873 86.38ZM210.383 89.758H211.553V87.22H210.383V89.758ZM219.466 88.876H219.124C219.082 88.876 219.058 88.852 219.058 88.816V86.326C219.058 86.29 219.082 86.266 219.124 86.266H219.466C219.514 86.266 219.532 86.29 219.532 86.326V88.816C219.532 88.852 219.514 88.876 219.466 88.876ZM216.724 88.828C215.884 88.828 215.326 88.336 215.326 87.628C215.326 86.914 215.884 86.428 216.724 86.428C217.564 86.428 218.128 86.914 218.128 87.628C218.128 88.336 217.564 88.828 216.724 88.828ZM216.724 88.438C217.306 88.438 217.672 88.102 217.672 87.628C217.672 87.16 217.306 86.824 216.724 86.824C216.148 86.824 215.788 87.16 215.788 87.628C215.788 88.102 216.148 88.438 216.724 88.438ZM219.64 91.48H216.322C216.28 91.48 216.256 91.456 216.256 91.414V90.172C216.256 90.13 216.28 90.106 216.322 90.106H219.064V89.56H216.31C216.268 89.56 216.244 89.536 216.244 89.494V89.23C216.244 89.194 216.268 89.17 216.31 89.17H219.472C219.514 89.17 219.532 89.194 219.532 89.23V90.43C219.532 90.472 219.508 90.496 219.466 90.496H216.73V91.078H219.64C219.682 91.078 219.7 91.102 219.7 91.144V91.414C219.7 91.456 219.682 91.48 219.64 91.48ZM223.605 86.836V87.124C223.605 87.16 223.581 87.184 223.545 87.184H220.473C220.431 87.184 220.407 87.16 220.407 87.124V86.836C220.407 86.8 220.431 86.776 220.473 86.776H221.769V86.248C221.769 86.206 221.787 86.182 221.829 86.182H222.183C222.225 86.182 222.243 86.206 222.243 86.248V86.776H223.545C223.581 86.776 223.605 86.8 223.605 86.836ZM224.565 87.67H225.411C225.447 87.67 225.471 87.694 225.471 87.736V88.042C225.471 88.078 225.447 88.102 225.411 88.102H224.565V89.254C224.565 89.296 224.553 89.32 224.505 89.32H224.157C224.121 89.32 224.097 89.296 224.097 89.254V86.326C224.097 86.29 224.121 86.266 224.157 86.266H224.505C224.553 86.266 224.565 86.29 224.565 86.326V87.67ZM223.269 88.384C223.269 88.948 222.765 89.296 222.003 89.296C221.253 89.296 220.749 88.948 220.749 88.384C220.749 87.826 221.253 87.478 222.003 87.478C222.765 87.478 223.269 87.826 223.269 88.384ZM221.205 88.384C221.205 88.684 221.487 88.912 222.003 88.912C222.525 88.912 222.807 88.69 222.807 88.384C222.807 88.078 222.525 87.862 222.003 87.862C221.487 87.862 221.205 88.078 221.205 88.384ZM221.361 89.614H224.511C224.553 89.614 224.565 89.632 224.565 89.668V91.402C224.565 91.444 224.553 91.468 224.511 91.468H221.361C221.319 91.468 221.295 91.444 221.295 91.402V89.668C221.295 89.632 221.319 89.614 221.361 89.614ZM221.769 91.054H224.097V90.022H221.769V91.054ZM228.14 88.144C227.09 88.144 226.514 87.808 226.514 87.238C226.514 86.662 227.09 86.332 228.14 86.332C229.202 86.332 229.772 86.662 229.772 87.238C229.772 87.808 229.202 88.144 228.14 88.144ZM228.14 87.754C228.944 87.754 229.304 87.55 229.304 87.238C229.304 86.92 228.944 86.728 228.14 86.728C227.348 86.728 226.982 86.92 226.982 87.238C226.982 87.55 227.348 87.754 228.14 87.754ZM230.582 88.924H225.722C225.686 88.924 225.662 88.906 225.662 88.864V88.594C225.662 88.552 225.686 88.528 225.722 88.528H230.582C230.618 88.528 230.636 88.552 230.636 88.594V88.864C230.636 88.906 230.618 88.924 230.582 88.924ZM229.994 91.516H226.484C226.442 91.516 226.424 91.498 226.424 91.456V90.316C226.424 90.274 226.442 90.25 226.484 90.25H229.412V89.776H226.472C226.43 89.776 226.412 89.752 226.412 89.71V89.458C226.412 89.416 226.43 89.392 226.472 89.392H229.814C229.856 89.392 229.874 89.416 229.874 89.458V90.568C229.874 90.61 229.856 90.634 229.814 90.634H226.892V91.126H229.994C230.03 91.126 230.054 91.15 230.054 91.192V91.456C230.054 91.498 230.03 91.516 229.994 91.516ZM235.583 89.374C234.917 89.5 234.089 89.542 233.231 89.542H232.283C232.241 89.542 232.223 89.518 232.223 89.482V89.206C232.223 89.176 232.241 89.152 232.283 89.152H233.117C233.303 89.152 233.489 89.152 233.669 89.146V88.678C233.027 88.606 232.643 88.282 232.643 87.826C232.643 87.544 232.829 87.352 233.003 87.25H232.373C232.331 87.25 232.319 87.226 232.319 87.184V86.908C232.319 86.872 232.331 86.848 232.373 86.848H233.693V86.278C233.693 86.242 233.717 86.218 233.759 86.218H234.101C234.143 86.218 234.161 86.242 234.161 86.278V86.848H235.451C235.487 86.848 235.505 86.872 235.505 86.908V87.184C235.505 87.226 235.487 87.25 235.451 87.25H234.851C235.025 87.352 235.211 87.544 235.211 87.826C235.211 88.294 234.797 88.624 234.143 88.678V89.128C234.653 89.104 235.139 89.062 235.541 88.99C235.589 88.978 235.607 89.008 235.613 89.05L235.643 89.314C235.649 89.344 235.625 89.362 235.583 89.374ZM236.495 87.814H237.341C237.377 87.814 237.401 87.838 237.401 87.88V88.174C237.401 88.21 237.377 88.234 237.341 88.234H236.495V89.596C236.495 89.632 236.483 89.656 236.435 89.656H236.087C236.051 89.656 236.027 89.632 236.027 89.596V86.326C236.027 86.29 236.051 86.266 236.087 86.266H236.435C236.483 86.266 236.495 86.29 236.495 86.326V87.814ZM233.087 87.796C233.087 88.102 233.381 88.318 233.927 88.318C234.461 88.318 234.767 88.102 234.767 87.796C234.767 87.49 234.425 87.274 233.927 87.274C233.417 87.274 233.087 87.49 233.087 87.796ZM233.075 89.932H236.441C236.483 89.932 236.495 89.956 236.495 89.992V91.492C236.495 91.528 236.483 91.552 236.441 91.552H236.087C236.051 91.552 236.027 91.528 236.027 91.492V90.322H233.075C233.039 90.322 233.015 90.298 233.015 90.262V89.992C233.015 89.956 233.039 89.932 233.075 89.932ZM241.99 90.124H241.648C241.606 90.124 241.582 90.1 241.582 90.064V86.326C241.582 86.29 241.606 86.266 241.648 86.266H241.99C242.038 86.266 242.056 86.29 242.056 86.326V90.064C242.056 90.1 242.038 90.124 241.99 90.124ZM239.248 89.122C238.408 89.122 237.85 88.588 237.85 87.808C237.85 87.034 238.408 86.488 239.248 86.488C240.088 86.488 240.652 87.034 240.652 87.808C240.652 88.588 240.088 89.122 239.248 89.122ZM239.248 88.714C239.83 88.714 240.19 88.342 240.19 87.808C240.19 87.268 239.83 86.896 239.248 86.896C238.666 86.896 238.312 87.268 238.312 87.808C238.312 88.342 238.666 88.714 239.248 88.714ZM242.134 91.414H238.822C238.774 91.414 238.762 91.39 238.762 91.354V89.698C238.762 89.662 238.774 89.638 238.822 89.638H239.17C239.206 89.638 239.23 89.662 239.23 89.698V90.988H242.134C242.182 90.988 242.2 91.012 242.2 91.054V91.354C242.2 91.39 242.182 91.414 242.134 91.414ZM247.173 86.266H247.521C247.557 86.266 247.575 86.29 247.575 86.326V91.408C247.575 91.45 247.557 91.474 247.521 91.474H247.173C247.131 91.474 247.107 91.45 247.107 91.408V88.84H246.363V91.246C246.363 91.288 246.345 91.312 246.303 91.312H245.961C245.925 91.312 245.901 91.288 245.901 91.246V86.446C245.901 86.404 245.925 86.38 245.961 86.38H246.303C246.345 86.38 246.363 86.404 246.363 86.446V88.408H247.107V86.326C247.107 86.29 247.131 86.266 247.173 86.266ZM244.413 87.268H245.445C245.487 87.268 245.505 87.292 245.505 87.328V87.616C245.505 87.652 245.487 87.676 245.445 87.676H242.889C242.847 87.676 242.829 87.652 242.829 87.616V87.328C242.829 87.292 242.847 87.268 242.889 87.268H243.939V86.494C243.939 86.458 243.957 86.434 244.005 86.434H244.353C244.389 86.434 244.413 86.458 244.413 86.494V87.268ZM244.185 88.138C244.911 88.138 245.373 88.618 245.373 89.35C245.373 90.094 244.911 90.568 244.185 90.568C243.459 90.568 242.997 90.094 242.997 89.35C242.997 88.618 243.459 88.138 244.185 88.138ZM244.185 90.178C244.653 90.178 244.923 89.83 244.923 89.35C244.923 88.876 244.653 88.528 244.185 88.528C243.711 88.528 243.447 88.876 243.447 89.35C243.447 89.83 243.711 90.178 244.185 90.178ZM248.683 88.696L248.587 88.408C248.575 88.36 248.593 88.336 248.635 88.33C249.661 88.084 250.435 87.694 250.435 87.046V86.908H248.929C248.887 86.908 248.869 86.89 248.869 86.854V86.548C248.869 86.506 248.887 86.482 248.929 86.482H252.415C252.457 86.482 252.475 86.506 252.475 86.548V86.854C252.475 86.89 252.457 86.908 252.415 86.908H250.909V87.046C250.909 87.688 251.731 88.108 252.697 88.324C252.739 88.336 252.757 88.354 252.745 88.402L252.649 88.696C252.631 88.732 252.607 88.744 252.571 88.738C251.677 88.54 250.951 88.168 250.675 87.7C250.411 88.174 249.715 88.516 248.767 88.738C248.725 88.744 248.695 88.732 248.683 88.696ZM248.245 89.29H253.105C253.141 89.29 253.159 89.314 253.159 89.35V89.656C253.159 89.698 253.141 89.722 253.105 89.722H250.909V91.408C250.909 91.45 250.885 91.474 250.843 91.474H250.501C250.459 91.474 250.435 91.45 250.435 91.408V89.722H248.245C248.209 89.722 248.185 89.698 248.185 89.656V89.35C248.185 89.314 248.209 89.29 248.245 89.29ZM257.766 86.266H258.114C258.15 86.266 258.168 86.29 258.168 86.326V91.408C258.168 91.45 258.15 91.474 258.114 91.474H257.766C257.724 91.474 257.7 91.45 257.7 91.408V86.326C257.7 86.29 257.724 86.266 257.766 86.266ZM256.584 86.38H256.926C256.962 86.38 256.98 86.404 256.98 86.446V91.246C256.98 91.288 256.962 91.312 256.926 91.312H256.584C256.542 91.312 256.524 91.288 256.524 91.246V88.378H255.696C255.66 88.378 255.636 88.354 255.636 88.318V88.012C255.636 87.97 255.66 87.946 255.696 87.946H256.524V86.446C256.524 86.404 256.542 86.38 256.584 86.38ZM254.988 87.538C254.988 88.438 255.384 89.212 256.02 89.848C256.05 89.884 256.05 89.92 256.02 89.944L255.804 90.148C255.774 90.178 255.738 90.184 255.702 90.148C255.222 89.644 254.91 89.086 254.766 88.624C254.64 89.134 254.37 89.704 253.794 90.262C253.764 90.292 253.728 90.292 253.698 90.262L253.482 90.058C253.452 90.028 253.452 89.992 253.488 89.962C254.22 89.272 254.52 88.444 254.52 87.538V86.8C254.52 86.758 254.544 86.74 254.586 86.74H254.928C254.964 86.74 254.988 86.758 254.988 86.8V87.538ZM262.463 90.478H263.699C263.735 90.478 263.753 90.496 263.753 90.538V90.844C263.753 90.886 263.735 90.91 263.699 90.91H258.839C258.803 90.91 258.779 90.886 258.779 90.844V90.538C258.779 90.496 258.803 90.478 258.839 90.478H260.069V89.068C259.673 88.846 259.421 88.486 259.421 87.988C259.421 87.07 260.267 86.626 261.263 86.626C262.259 86.626 263.105 87.07 263.105 87.988C263.105 88.486 262.853 88.846 262.463 89.068V90.478ZM261.263 87.052C260.501 87.052 259.895 87.358 259.895 87.988C259.895 88.618 260.501 88.918 261.263 88.918C262.025 88.918 262.631 88.612 262.631 87.988C262.631 87.358 262.025 87.052 261.263 87.052ZM260.537 89.254V90.478H261.989V89.254C261.767 89.314 261.521 89.344 261.263 89.344C261.005 89.344 260.759 89.314 260.537 89.254Z" fill="#B4B4B4"/>
<circle cx="282" cy="43" r="10" fill="#ED723D"/>
</svg>
