<svg width="328" height="240" viewBox="0 0 328 240" fill="none" xmlns="http://www.w3.org/2000/svg">
<rect width="328" height="240" rx="20" fill="#F6F6EE"/>
<rect x="33.1379" y="36.328" width="110.527" height="185.546" rx="11" transform="rotate(-8.57262 33.1379 36.328)" fill="#F9F6EE" stroke="#C0C0B5" stroke-width="2"/>
<circle cx="105.805" cy="147.644" r="11.2527" transform="rotate(-8.57262 105.805 147.644)" fill="#FDDC85"/>
<mask id="mask0_1023_33174" style="mask-type:alpha" maskUnits="userSpaceOnUse" x="94" y="136" width="24" height="23">
<circle cx="105.805" cy="147.644" r="11.2527" transform="rotate(-8.57262 105.805 147.644)" fill="#FDDC85"/>
</mask>
<g mask="url(#mask0_1023_33174)">
<path d="M119.555 150.787L92.4993 150.598L90.9617 140.398L117.388 136.415L119.555 150.787Z" fill="#DA9039"/>
</g>
<path fill-rule="evenodd" clip-rule="evenodd" d="M95.7398 80.8819C93.6914 81.1907 92.2812 83.1016 92.59 85.15V85.15C92.6122 85.2977 92.5269 85.4438 92.3843 85.4882C80.2127 89.2735 72.292 101.475 74.2506 114.468L78.1644 140.43C78.1644 140.431 78.1642 140.431 78.164 140.431V140.431C75.0913 140.894 72.976 143.76 73.4391 146.833C73.9023 149.906 76.7687 152.021 79.8413 151.558L131.767 143.73C134.84 143.267 136.955 140.401 136.492 137.328V137.328C135.765 132.502 129.501 128.691 128.773 123.864L126.177 106.64C124.218 93.6472 113.051 84.3221 100.304 84.2941C100.155 84.2937 100.03 84.1794 100.008 84.0318V84.0318C99.6992 81.9834 97.7883 80.5731 95.7398 80.8819Z" fill="#FDDC85"/>
<path d="M87.8801 143.92C87.5532 143.969 87.2108 143.916 86.8972 143.749C86.1251 143.337 85.8347 142.383 86.2501 141.614C88.6082 137.235 85.1772 133.706 85.0314 133.56C84.4168 132.946 84.4175 131.948 85.0344 131.331C85.6513 130.714 86.649 130.71 87.2674 131.318C89.1014 133.124 91.8381 137.91 89.0431 143.097C88.7959 143.554 88.3586 143.843 87.8794 143.915L87.8801 143.92Z" fill="#DA9039"/>
<path fill-rule="evenodd" clip-rule="evenodd" d="M103.323 124.656C102.069 127.553 99.4239 129.138 96.2246 129.62C91.1374 130.387 86.5666 128.078 85.4833 120.892C84.4 113.706 87.8567 108.624 92.9439 107.857C96.1432 107.375 99.2294 108.713 101.349 111.561C102.535 108.215 105.089 106.026 108.288 105.544C113.376 104.777 118.177 108.614 119.26 115.8C120.343 122.986 116.656 126.54 111.569 127.307C108.37 127.789 105.375 127.055 103.323 124.656Z" fill="white"/>
<path d="M102.935 118.033C103.704 123.134 101.694 125.565 98.8231 125.997C95.9526 126.43 93.3148 124.7 92.5458 119.599C91.7768 114.498 93.6235 110.98 96.494 110.547C99.3645 110.114 102.166 112.931 102.935 118.033Z" fill="#312C2C"/>
<path d="M118.743 115.649C119.512 120.751 117.501 123.181 114.631 123.614C111.76 124.047 109.122 122.317 108.353 117.216C107.584 112.114 109.431 108.597 112.302 108.164C115.172 107.731 117.974 110.548 118.743 115.649Z" fill="#312C2C"/>
<rect x="71.7837" y="35.181" width="33.7582" height="9.37728" rx="4.68864" transform="rotate(-8.57262 71.7837 35.181)" fill="#C0C0B5"/>
<rect x="95.9282" y="207.929" width="37.5091" height="1.87546" rx="0.937728" transform="rotate(-8.57262 95.9282 207.929)" fill="#DEDED8"/>
<path fill-rule="evenodd" clip-rule="evenodd" d="M191 36C171.67 36 156 51.67 156 71C156 76.3744 157.211 81.4659 159.376 86.0164C153.314 88.2928 149 94.1426 149 101C149 109.837 156.163 117 165 117C172.656 117 179.057 111.622 180.63 104.438C183.907 105.453 187.389 106 191 106H261C280.33 106 296 90.33 296 71C296 51.67 280.33 36 261 36H191Z" fill="white"/>
<circle cx="143" cy="119" r="6" fill="white"/>
<path d="M195.168 51.46H196.38C196.5 51.46 196.548 51.52 196.548 51.616V61.864C196.548 61.96 196.5 62.008 196.38 62.008H195.168C195.06 62.008 195.012 61.96 195.012 61.864V51.616C195.012 51.52 195.06 51.46 195.168 51.46ZM194.064 54.076H187.824C187.716 54.076 187.68 54.016 187.68 53.932V52.936C187.68 52.84 187.716 52.792 187.824 52.792H190.236V51.748C190.236 51.652 190.284 51.604 190.38 51.604H191.604C191.712 51.604 191.748 51.652 191.748 51.748V52.792H194.064C194.172 52.792 194.22 52.84 194.22 52.936V53.932C194.22 54.016 194.172 54.076 194.064 54.076ZM194.376 59.044L194.508 60.016C194.52 60.112 194.46 60.16 194.352 60.184C193.032 60.448 191.604 60.544 189.744 60.544H187.704C187.608 60.544 187.56 60.484 187.56 60.388V59.392C187.56 59.296 187.608 59.236 187.704 59.236H189.444C189.72 59.236 189.984 59.236 190.236 59.224V58.48C189 58.264 188.28 57.52 188.28 56.524C188.28 55.324 189.288 54.508 190.992 54.508C192.72 54.508 193.74 55.324 193.74 56.524C193.74 57.532 193.008 58.276 191.748 58.48V59.176C192.636 59.128 193.44 59.032 194.196 58.9C194.316 58.876 194.364 58.948 194.376 59.044ZM189.756 56.524C189.756 57.028 190.236 57.316 191.004 57.316C191.772 57.316 192.252 57.028 192.252 56.524C192.252 56.008 191.772 55.72 191.004 55.72C190.236 55.72 189.756 56.008 189.756 56.524ZM203.337 57.664H205.605V51.616C205.605 51.52 205.653 51.46 205.761 51.46H206.973C207.093 51.46 207.141 51.52 207.141 51.616V59.524C207.141 59.62 207.093 59.68 206.973 59.68H205.761C205.653 59.68 205.605 59.62 205.605 59.524V58.864H203.337C203.217 58.864 203.181 58.816 203.181 58.708V57.82C203.181 57.712 203.217 57.664 203.337 57.664ZM201.525 55.552C199.653 55.552 198.693 54.772 198.693 53.656C198.693 52.528 199.653 51.748 201.525 51.748C203.409 51.748 204.357 52.528 204.357 53.656C204.357 54.772 203.409 55.552 201.525 55.552ZM201.525 52.924C200.637 52.924 200.193 53.224 200.193 53.656C200.193 54.076 200.637 54.376 201.525 54.376C202.413 54.376 202.869 54.076 202.869 53.656C202.869 53.224 202.413 52.924 201.525 52.924ZM200.637 58.516V57.256H200.373H198.165C198.057 57.256 198.009 57.196 198.009 57.112V56.128C198.009 56.032 198.057 55.972 198.165 55.972H200.073C201.969 55.972 203.469 55.888 204.825 55.648C204.933 55.624 204.993 55.684 205.005 55.78L205.137 56.716C205.149 56.812 205.089 56.848 204.981 56.872C204.069 57.052 203.157 57.16 202.149 57.22V58.516C202.149 58.6 202.101 58.66 202.005 58.66H200.805C200.697 58.66 200.637 58.6 200.637 58.516ZM201.405 60.604H207.261C207.381 60.604 207.429 60.664 207.429 60.772V61.816C207.429 61.912 207.381 61.972 207.261 61.972H200.025C199.917 61.972 199.869 61.912 199.869 61.816V59.26C199.869 59.164 199.917 59.116 200.025 59.116H201.189C201.297 59.116 201.405 59.164 201.405 59.26V60.604ZM217.219 55.168H218.743C218.863 55.168 218.911 55.228 218.911 55.336V56.38C218.911 56.476 218.863 56.536 218.743 56.536H217.219V61.864C217.219 61.96 217.171 62.008 217.051 62.008H215.827C215.731 62.008 215.683 61.96 215.683 61.864V51.616C215.683 51.52 215.731 51.46 215.827 51.46H217.051C217.171 51.46 217.219 51.52 217.219 51.616V55.168ZM209.311 52.588H214.003C214.111 52.588 214.159 52.648 214.159 52.744V54.184C214.159 56.5 212.719 58.24 209.683 59.74C209.575 59.788 209.503 59.776 209.455 59.692L208.891 58.696C208.831 58.6 208.855 58.528 208.951 58.48C211.531 57.22 212.611 55.996 212.611 54.184V53.944H209.311C209.203 53.944 209.167 53.896 209.167 53.8V52.744C209.167 52.648 209.203 52.588 209.311 52.588ZM226.949 51.46H228.161C228.281 51.46 228.329 51.52 228.329 51.616V56.992C228.329 57.088 228.281 57.136 228.161 57.136H226.949C226.841 57.136 226.793 57.088 226.793 56.992V51.616C226.793 51.52 226.841 51.46 226.949 51.46ZM225.437 54.424C225.437 55.948 224.201 57.004 222.485 57.004C220.769 57.004 219.533 55.948 219.533 54.424C219.533 52.912 220.769 51.844 222.485 51.844C224.201 51.844 225.437 52.912 225.437 54.424ZM221.033 54.424C221.033 55.18 221.681 55.708 222.485 55.708C223.289 55.708 223.937 55.18 223.937 54.424C223.937 53.656 223.289 53.128 222.485 53.128C221.681 53.128 221.033 53.656 221.033 54.424ZM226.973 57.664H228.173C228.281 57.664 228.329 57.712 228.329 57.808V61.852C228.329 61.948 228.281 62.008 228.173 62.008H221.561C221.453 62.008 221.405 61.948 221.405 61.852V57.808C221.405 57.712 221.453 57.664 221.561 57.664H222.761C222.869 57.664 222.917 57.712 222.917 57.808V58.648H226.829V57.808C226.829 57.712 226.877 57.664 226.973 57.664ZM222.917 59.884V60.76H226.829V59.884H222.917ZM234.759 55.36C232.551 55.36 231.351 54.628 231.351 53.464C231.351 52.3 232.551 51.592 234.759 51.592C236.979 51.592 238.167 52.3 238.167 53.464C238.167 54.628 236.979 55.36 234.759 55.36ZM234.759 54.124C236.103 54.124 236.655 53.836 236.655 53.464C236.655 53.08 236.103 52.804 234.759 52.804C233.439 52.804 232.875 53.08 232.875 53.464C232.875 53.836 233.439 54.124 234.759 54.124ZM239.691 57.064H229.851C229.755 57.064 229.707 57.004 229.707 56.908V55.972C229.707 55.888 229.755 55.816 229.851 55.816H239.691C239.799 55.816 239.847 55.888 239.847 55.972V56.908C239.847 57.004 239.799 57.064 239.691 57.064ZM238.551 62.116H231.303C231.207 62.116 231.159 62.056 231.159 61.972V59.416C231.159 59.332 231.207 59.26 231.303 59.26H236.883V58.84H231.279C231.183 58.84 231.135 58.792 231.135 58.684V57.808C231.135 57.712 231.183 57.664 231.279 57.664H238.239C238.347 57.664 238.395 57.712 238.395 57.808V60.28C238.395 60.376 238.335 60.436 238.227 60.436H232.671V60.904H238.551C238.659 60.904 238.719 60.964 238.719 61.072V61.972C238.719 62.056 238.659 62.116 238.551 62.116ZM250.773 51.46H251.985C252.105 51.46 252.153 51.52 252.153 51.616V61.864C252.153 61.96 252.105 62.008 251.985 62.008H250.773C250.665 62.008 250.617 61.96 250.617 61.864V51.616C250.617 51.52 250.665 51.46 250.773 51.46ZM246.417 56.572C244.605 56.572 243.585 55.468 243.585 54.196C243.585 52.912 244.605 51.808 246.417 51.808C248.217 51.808 249.261 52.912 249.261 54.196C249.261 55.468 248.217 56.572 246.417 56.572ZM246.417 53.092C245.577 53.092 245.073 53.572 245.073 54.196C245.073 54.808 245.577 55.288 246.417 55.288C247.257 55.288 247.761 54.808 247.761 54.196C247.761 53.572 247.257 53.092 246.417 53.092ZM249.993 57.088L250.125 58.036C250.137 58.132 250.077 58.18 249.969 58.204C249.117 58.372 248.217 58.468 247.185 58.516V61.576C247.185 61.672 247.125 61.72 247.029 61.72H245.817C245.709 61.72 245.661 61.672 245.661 61.576V58.552H245.361H242.985C242.877 58.552 242.829 58.504 242.829 58.408V57.424C242.829 57.34 242.877 57.28 242.985 57.28H245.061C246.957 57.28 248.457 57.184 249.813 56.944C249.933 56.92 249.981 56.992 249.993 57.088ZM259.987 52.684V53.68C259.987 53.776 259.951 53.836 259.843 53.836H253.807C253.699 53.836 253.651 53.776 253.651 53.68V52.684C253.651 52.588 253.699 52.528 253.807 52.528H256.039V51.556C256.039 51.448 256.087 51.4 256.195 51.4H257.443C257.551 51.4 257.599 51.46 257.599 51.556V52.528H259.843C259.951 52.528 259.987 52.588 259.987 52.684ZM262.231 54.508H263.755C263.875 54.508 263.923 54.556 263.923 54.664V55.696C263.923 55.804 263.875 55.864 263.755 55.864H262.231V59.02C262.231 59.116 262.183 59.164 262.063 59.164H260.839C260.743 59.164 260.695 59.116 260.695 59.02V51.616C260.695 51.52 260.755 51.46 260.851 51.46H262.063C262.183 51.46 262.231 51.52 262.231 51.616V54.508ZM259.483 56.26C259.483 57.58 258.403 58.36 256.819 58.36C255.247 58.36 254.179 57.58 254.179 56.26C254.179 54.952 255.247 54.172 256.819 54.172C258.403 54.172 259.483 54.952 259.483 56.26ZM255.655 56.26C255.655 56.788 256.087 57.148 256.831 57.148C257.575 57.148 257.995 56.788 257.995 56.26C257.995 55.744 257.575 55.384 256.831 55.384C256.087 55.384 255.655 55.744 255.655 56.26ZM257.023 60.604H262.471C262.579 60.604 262.627 60.664 262.627 60.772V61.804C262.627 61.9 262.579 61.96 262.471 61.96H255.643C255.535 61.96 255.487 61.9 255.487 61.804V59.032C255.487 58.936 255.535 58.876 255.643 58.876H256.867C256.975 58.876 257.023 58.936 257.023 59.032V60.604ZM193.155 71.168H194.679C194.799 71.168 194.847 71.228 194.847 71.336V72.38C194.847 72.476 194.799 72.536 194.679 72.536H193.155V77.864C193.155 77.96 193.107 78.008 192.987 78.008H191.763C191.667 78.008 191.619 77.96 191.619 77.864V67.616C191.619 67.52 191.667 67.46 191.763 67.46H192.987C193.107 67.46 193.155 67.52 193.155 67.616V71.168ZM185.247 68.588H189.939C190.047 68.588 190.095 68.648 190.095 68.744V70.184C190.095 72.5 188.655 74.24 185.619 75.74C185.511 75.788 185.439 75.776 185.391 75.692L184.827 74.696C184.767 74.6 184.791 74.528 184.887 74.48C187.467 73.22 188.547 71.996 188.547 70.184V69.944H185.247C185.139 69.944 185.103 69.896 185.103 69.8V68.744C185.103 68.648 185.139 68.588 185.247 68.588ZM203.748 69.692H205.272C205.392 69.692 205.44 69.752 205.44 69.86V70.892C205.44 71 205.392 71.06 205.272 71.06H203.748V73.304C203.748 73.4 203.7 73.448 203.58 73.448H202.356C202.26 73.448 202.212 73.4 202.212 73.304V67.616C202.212 67.52 202.26 67.46 202.356 67.46H203.58C203.7 67.46 203.748 67.52 203.748 67.616V69.692ZM198.384 71.516C197.832 72.224 196.98 72.908 195.96 73.424C195.864 73.472 195.744 73.448 195.708 73.388L195.108 72.476C195.048 72.38 195.048 72.272 195.132 72.236C196.548 71.516 197.592 70.64 197.592 69.632V69.368H195.576C195.456 69.368 195.42 69.32 195.42 69.224V68.216C195.42 68.132 195.456 68.072 195.576 68.072H201.084C201.192 68.072 201.24 68.132 201.24 68.216V69.224C201.24 69.32 201.192 69.368 201.084 69.368H199.128V69.632C199.128 70.58 199.956 71.264 201.42 71.972C201.504 72.02 201.504 72.116 201.468 72.212L200.916 73.124C200.88 73.208 200.76 73.208 200.664 73.16C199.788 72.776 198.96 72.164 198.384 71.516ZM200.244 73.736C202.656 73.736 203.856 74.612 203.856 75.932C203.856 77.24 202.656 78.128 200.244 78.128C197.82 78.128 196.62 77.24 196.62 75.932C196.62 74.612 197.82 73.736 200.244 73.736ZM200.244 76.844C201.768 76.844 202.332 76.46 202.332 75.932C202.332 75.404 201.768 75.032 200.244 75.032C198.708 75.032 198.144 75.404 198.144 75.932C198.144 76.46 198.708 76.844 200.244 76.844ZM216.979 71.168H218.503C218.623 71.168 218.671 71.228 218.671 71.336V72.38C218.671 72.476 218.623 72.536 218.503 72.536H216.979V77.864C216.979 77.96 216.931 78.008 216.811 78.008H215.587C215.491 78.008 215.443 77.96 215.443 77.864V67.616C215.443 67.52 215.491 67.46 215.587 67.46H216.811C216.931 67.46 216.979 67.52 216.979 67.616V71.168ZM208.903 68.528H213.991C214.099 68.528 214.135 68.588 214.135 68.684V75.2C214.135 75.296 214.099 75.356 213.991 75.356H208.903C208.783 75.356 208.735 75.296 208.735 75.2V68.684C208.735 68.588 208.783 68.528 208.903 68.528ZM210.259 73.988H212.635V69.896H210.259V73.988ZM226.709 67.46H227.921C228.041 67.46 228.089 67.52 228.089 67.616V77.864C228.089 77.96 228.041 78.008 227.921 78.008H226.709C226.601 78.008 226.553 77.96 226.553 77.864V67.616C226.553 67.52 226.601 67.46 226.709 67.46ZM225.581 74.468C225.677 74.54 225.665 74.636 225.593 74.708L224.873 75.548C224.801 75.62 224.717 75.62 224.621 75.548C223.613 74.732 222.809 73.832 222.401 73.016C221.957 73.904 221.117 74.912 220.073 75.716C219.977 75.788 219.881 75.788 219.821 75.716L219.089 74.876C219.017 74.816 219.017 74.696 219.101 74.636C220.541 73.484 221.597 72.044 221.597 70.1V69.92H219.545C219.437 69.92 219.389 69.86 219.389 69.764V68.708C219.389 68.612 219.437 68.552 219.545 68.552H225.041C225.161 68.552 225.209 68.612 225.209 68.708V69.764C225.209 69.86 225.161 69.92 225.041 69.92H223.121V70.1C223.121 71.984 224.285 73.424 225.581 74.468ZM238.166 69.812H239.69C239.81 69.812 239.858 69.872 239.858 69.968V71.012C239.858 71.108 239.81 71.168 239.69 71.168H238.166V73.208C238.166 73.304 238.118 73.364 237.998 73.364H236.774C236.678 73.364 236.63 73.304 236.63 73.208V67.616C236.63 67.52 236.678 67.46 236.774 67.46H237.998C238.118 67.46 238.166 67.52 238.166 67.616V69.812ZM235.322 68.288V72.716C235.322 72.812 235.286 72.86 235.178 72.86H230.09C229.97 72.86 229.922 72.812 229.922 72.716V68.288C229.922 68.192 229.97 68.132 230.09 68.132H235.178C235.286 68.132 235.322 68.192 235.322 68.288ZM231.446 71.576H233.822V69.428H231.446V71.576ZM231.254 73.892H238.01C238.118 73.892 238.166 73.952 238.166 74.036V77.972C238.166 78.056 238.118 78.116 238.01 78.116H236.786C236.678 78.116 236.63 78.056 236.63 77.972V75.224H231.254C231.146 75.224 231.098 75.164 231.098 75.08V74.036C231.098 73.952 231.146 73.892 231.254 73.892ZM248.601 69.704H250.377V67.616C250.377 67.52 250.425 67.46 250.533 67.46H251.745C251.865 67.46 251.913 67.52 251.913 67.616V72.584C251.913 72.68 251.865 72.74 251.745 72.74H250.533C250.425 72.74 250.377 72.68 250.377 72.584V70.952H248.601C248.493 70.952 248.445 70.892 248.445 70.796V69.872C248.445 69.764 248.493 69.704 248.601 69.704ZM246.141 71.468C245.601 72.08 244.665 72.644 243.645 73.004C243.561 73.04 243.429 73.04 243.393 72.956L242.925 72.032C242.865 71.936 242.877 71.828 242.973 71.792C244.413 71.264 245.361 70.592 245.361 69.656V69.32H243.393C243.285 69.32 243.237 69.26 243.237 69.164V68.168C243.237 68.072 243.285 68.012 243.393 68.012H248.793C248.901 68.012 248.949 68.072 248.949 68.168V69.164C248.949 69.26 248.901 69.32 248.793 69.32H246.885V69.656C246.885 70.52 247.629 71.12 249.105 71.588C249.189 71.624 249.213 71.708 249.165 71.816L248.757 72.752C248.709 72.824 248.589 72.824 248.505 72.8C247.617 72.548 246.717 72.056 246.141 71.468ZM246.501 76.82H251.985C252.081 76.82 252.141 76.868 252.141 76.976V77.9C252.141 77.996 252.081 78.044 251.985 78.044H245.133C245.037 78.044 244.989 77.996 244.989 77.9V75.188C244.989 75.104 245.037 75.032 245.133 75.032H250.401V74.48H245.109C245.013 74.48 244.965 74.42 244.965 74.312V73.412C244.965 73.328 245.013 73.268 245.109 73.268H251.757C251.865 73.268 251.913 73.328 251.913 73.412V76.064C251.913 76.16 251.853 76.232 251.745 76.232H246.501V76.82ZM261.991 71.348H263.515C263.635 71.348 263.683 71.396 263.683 71.504V72.548C263.683 72.644 263.635 72.704 263.515 72.704H261.991V77.864C261.991 77.96 261.943 78.008 261.823 78.008H260.599C260.503 78.008 260.455 77.96 260.455 77.864V67.616C260.455 67.52 260.503 67.46 260.599 67.46H261.823C261.943 67.46 261.991 67.52 261.991 67.616V71.348ZM259.831 74.696C259.927 74.768 259.915 74.864 259.842 74.936L259.122 75.776C259.051 75.848 258.955 75.848 258.859 75.776C257.851 74.972 257.059 74.06 256.651 73.244C256.207 74.132 255.355 75.14 254.311 75.956C254.227 76.016 254.131 76.016 254.059 75.956L253.339 75.116C253.267 75.044 253.267 74.924 253.351 74.864C254.707 73.772 255.727 72.428 255.835 70.64H253.699C253.591 70.64 253.543 70.58 253.543 70.496V69.428C253.543 69.344 253.591 69.284 253.699 69.284H255.847V67.928C255.847 67.844 255.895 67.784 256.003 67.784H257.215C257.323 67.784 257.371 67.844 257.371 67.928V69.284H259.387C259.495 69.284 259.543 69.344 259.543 69.428V70.496C259.543 70.58 259.495 70.64 259.387 70.64H257.383C257.503 72.38 258.607 73.724 259.831 74.696ZM265.696 74.552H264.688C264.592 74.552 264.532 74.504 264.532 74.396L264.412 68.156C264.412 68.06 264.472 68 264.568 68H265.816C265.912 68 265.972 68.06 265.972 68.156L265.852 74.396C265.852 74.504 265.792 74.552 265.696 74.552ZM265.216 77.348C264.664 77.348 264.244 76.952 264.244 76.4C264.244 75.848 264.664 75.452 265.216 75.452C265.768 75.452 266.188 75.848 266.188 76.4C266.188 76.952 265.768 77.348 265.216 77.348Z" fill="#303030"/>
<path d="M191.448 87.526H192.294C192.33 87.526 192.354 87.55 192.354 87.592V87.898C192.354 87.934 192.33 87.958 192.294 87.958H191.448V89.176C191.448 89.206 191.436 89.23 191.388 89.23H191.04C191.004 89.23 190.98 89.206 190.98 89.176V86.326C190.98 86.29 191.004 86.266 191.04 86.266H191.388C191.436 86.266 191.448 86.29 191.448 86.326V87.526ZM188.892 88.024C188.676 88.474 188.232 88.822 187.578 89.164C187.542 89.182 187.506 89.176 187.482 89.14L187.308 88.882C187.284 88.846 187.29 88.804 187.326 88.78C188.106 88.378 188.646 87.958 188.646 87.244V87.016H187.524C187.476 87.016 187.458 86.992 187.458 86.95V86.662C187.458 86.62 187.476 86.602 187.524 86.602H190.218C190.266 86.602 190.284 86.62 190.284 86.662V86.95C190.284 86.992 190.266 87.016 190.218 87.016H189.12V87.244C189.12 87.934 189.678 88.3 190.404 88.666C190.44 88.69 190.44 88.726 190.422 88.762L190.266 89.032C190.248 89.062 190.206 89.068 190.17 89.05C189.612 88.768 189.12 88.426 188.892 88.024ZM188.16 89.524H191.394C191.436 89.524 191.448 89.548 191.448 89.584V91.462C191.448 91.504 191.436 91.522 191.394 91.522H191.04C191.004 91.522 190.98 91.504 190.98 91.462V89.944H188.16C188.124 89.944 188.1 89.92 188.1 89.884V89.584C188.1 89.548 188.124 89.524 188.16 89.524ZM196.535 87.646H195.437C195.395 87.646 195.371 87.622 195.371 87.586V87.292C195.371 87.25 195.395 87.226 195.437 87.226H196.535V86.326C196.535 86.29 196.559 86.266 196.601 86.266H196.943C196.991 86.266 197.009 86.29 197.009 86.326V89.17C197.009 89.2 196.991 89.224 196.943 89.224H196.601C196.559 89.224 196.535 89.2 196.535 89.17V87.646ZM194.243 87.886C194.051 88.354 193.631 88.762 192.977 89.152C192.941 89.17 192.899 89.176 192.875 89.14L192.695 88.882C192.671 88.846 192.671 88.804 192.707 88.78C193.511 88.324 194.009 87.772 194.009 87.004V86.584C194.009 86.548 194.021 86.524 194.063 86.524H194.417C194.453 86.524 194.471 86.548 194.471 86.584V87.004C194.471 87.754 194.969 88.27 195.719 88.684C195.755 88.708 195.755 88.744 195.737 88.774L195.563 89.05C195.539 89.08 195.503 89.08 195.461 89.062C194.891 88.732 194.441 88.312 194.243 87.886ZM195.323 89.398C196.403 89.398 197.063 89.788 197.063 90.46C197.063 91.132 196.403 91.522 195.323 91.522C194.243 91.522 193.577 91.132 193.577 90.46C193.577 89.788 194.243 89.398 195.323 89.398ZM195.323 91.114C196.109 91.114 196.601 90.892 196.601 90.46C196.601 90.034 196.109 89.806 195.323 89.806C194.543 89.806 194.051 90.034 194.051 90.46C194.051 90.892 194.543 91.114 195.323 91.114ZM202.042 88.396H202.888C202.924 88.396 202.948 88.42 202.948 88.462V88.768C202.948 88.804 202.924 88.828 202.888 88.828H202.042V91.408C202.042 91.45 202.03 91.474 201.982 91.474H201.634C201.598 91.474 201.574 91.45 201.574 91.408V86.326C201.574 86.29 201.598 86.266 201.634 86.266H201.982C202.03 86.266 202.042 86.29 202.042 86.326V88.396ZM199.696 87.232H201.028C201.064 87.232 201.082 87.256 201.082 87.292V87.592C201.082 87.622 201.064 87.646 201.028 87.646H197.89C197.854 87.646 197.836 87.622 197.836 87.592V87.292C197.836 87.256 197.854 87.232 197.89 87.232H199.222V86.494C199.222 86.458 199.24 86.434 199.288 86.434H199.63C199.672 86.434 199.696 86.458 199.696 86.494V87.232ZM199.462 88.108C200.254 88.108 200.776 88.594 200.776 89.344C200.776 90.088 200.254 90.568 199.462 90.568C198.67 90.568 198.154 90.088 198.154 89.344C198.154 88.594 198.67 88.108 199.462 88.108ZM199.462 90.172C199.996 90.172 200.314 89.818 200.314 89.344C200.314 88.858 199.996 88.504 199.462 88.504C198.934 88.504 198.61 88.858 198.61 89.344C198.61 89.818 198.934 90.172 199.462 90.172ZM207.537 90.094H207.195C207.153 90.094 207.129 90.07 207.129 90.04V86.326C207.129 86.29 207.153 86.266 207.195 86.266H207.537C207.585 86.266 207.603 86.29 207.603 86.326V90.04C207.603 90.07 207.585 90.094 207.537 90.094ZM204.873 87.916C204.663 88.42 204.243 88.858 203.571 89.266C203.535 89.29 203.499 89.29 203.475 89.26L203.289 89.002C203.265 88.966 203.265 88.924 203.301 88.906C204.081 88.444 204.627 87.85 204.627 87.04V86.584C204.627 86.548 204.645 86.524 204.687 86.524H205.035C205.077 86.524 205.095 86.548 205.095 86.584V87.04C205.095 87.814 205.641 88.36 206.367 88.774C206.409 88.798 206.409 88.828 206.385 88.87L206.211 89.14C206.187 89.176 206.157 89.176 206.115 89.152C205.533 88.81 205.077 88.366 204.873 87.916ZM204.777 90.988H207.681C207.729 90.988 207.747 91.012 207.747 91.054V91.354C207.747 91.39 207.729 91.414 207.681 91.414H204.369C204.321 91.414 204.309 91.39 204.309 91.354V89.674C204.309 89.632 204.321 89.614 204.369 89.614H204.717C204.753 89.614 204.777 89.632 204.777 89.674V90.988ZM214.055 86.266H214.403C214.439 86.266 214.457 86.29 214.457 86.326V91.408C214.457 91.45 214.439 91.474 214.403 91.474H214.055C214.013 91.474 213.989 91.45 213.989 91.408V86.326C213.989 86.29 214.013 86.266 214.055 86.266ZM212.873 86.38H213.215C213.251 86.38 213.269 86.404 213.269 86.446V91.246C213.269 91.288 213.251 91.312 213.215 91.312H212.873C212.831 91.312 212.813 91.288 212.813 91.246V88.624H212.015V90.124C212.015 90.16 211.997 90.184 211.955 90.184H209.981C209.939 90.184 209.921 90.16 209.921 90.124V86.854C209.921 86.818 209.939 86.794 209.981 86.794H211.955C211.997 86.794 212.015 86.818 212.015 86.854V88.192H212.813V86.446C212.813 86.404 212.831 86.38 212.873 86.38ZM210.383 89.758H211.553V87.22H210.383V89.758ZM219.466 88.876H219.124C219.082 88.876 219.058 88.852 219.058 88.816V86.326C219.058 86.29 219.082 86.266 219.124 86.266H219.466C219.514 86.266 219.532 86.29 219.532 86.326V88.816C219.532 88.852 219.514 88.876 219.466 88.876ZM216.724 88.828C215.884 88.828 215.326 88.336 215.326 87.628C215.326 86.914 215.884 86.428 216.724 86.428C217.564 86.428 218.128 86.914 218.128 87.628C218.128 88.336 217.564 88.828 216.724 88.828ZM216.724 88.438C217.306 88.438 217.672 88.102 217.672 87.628C217.672 87.16 217.306 86.824 216.724 86.824C216.148 86.824 215.788 87.16 215.788 87.628C215.788 88.102 216.148 88.438 216.724 88.438ZM219.64 91.48H216.322C216.28 91.48 216.256 91.456 216.256 91.414V90.172C216.256 90.13 216.28 90.106 216.322 90.106H219.064V89.56H216.31C216.268 89.56 216.244 89.536 216.244 89.494V89.23C216.244 89.194 216.268 89.17 216.31 89.17H219.472C219.514 89.17 219.532 89.194 219.532 89.23V90.43C219.532 90.472 219.508 90.496 219.466 90.496H216.73V91.078H219.64C219.682 91.078 219.7 91.102 219.7 91.144V91.414C219.7 91.456 219.682 91.48 219.64 91.48ZM223.605 86.836V87.124C223.605 87.16 223.581 87.184 223.545 87.184H220.473C220.431 87.184 220.407 87.16 220.407 87.124V86.836C220.407 86.8 220.431 86.776 220.473 86.776H221.769V86.248C221.769 86.206 221.787 86.182 221.829 86.182H222.183C222.225 86.182 222.243 86.206 222.243 86.248V86.776H223.545C223.581 86.776 223.605 86.8 223.605 86.836ZM224.565 87.67H225.411C225.447 87.67 225.471 87.694 225.471 87.736V88.042C225.471 88.078 225.447 88.102 225.411 88.102H224.565V89.254C224.565 89.296 224.553 89.32 224.505 89.32H224.157C224.121 89.32 224.097 89.296 224.097 89.254V86.326C224.097 86.29 224.121 86.266 224.157 86.266H224.505C224.553 86.266 224.565 86.29 224.565 86.326V87.67ZM223.269 88.384C223.269 88.948 222.765 89.296 222.003 89.296C221.253 89.296 220.749 88.948 220.749 88.384C220.749 87.826 221.253 87.478 222.003 87.478C222.765 87.478 223.269 87.826 223.269 88.384ZM221.205 88.384C221.205 88.684 221.487 88.912 222.003 88.912C222.525 88.912 222.807 88.69 222.807 88.384C222.807 88.078 222.525 87.862 222.003 87.862C221.487 87.862 221.205 88.078 221.205 88.384ZM221.361 89.614H224.511C224.553 89.614 224.565 89.632 224.565 89.668V91.402C224.565 91.444 224.553 91.468 224.511 91.468H221.361C221.319 91.468 221.295 91.444 221.295 91.402V89.668C221.295 89.632 221.319 89.614 221.361 89.614ZM221.769 91.054H224.097V90.022H221.769V91.054ZM228.14 88.144C227.09 88.144 226.514 87.808 226.514 87.238C226.514 86.662 227.09 86.332 228.14 86.332C229.202 86.332 229.772 86.662 229.772 87.238C229.772 87.808 229.202 88.144 228.14 88.144ZM228.14 87.754C228.944 87.754 229.304 87.55 229.304 87.238C229.304 86.92 228.944 86.728 228.14 86.728C227.348 86.728 226.982 86.92 226.982 87.238C226.982 87.55 227.348 87.754 228.14 87.754ZM230.582 88.924H225.722C225.686 88.924 225.662 88.906 225.662 88.864V88.594C225.662 88.552 225.686 88.528 225.722 88.528H230.582C230.618 88.528 230.636 88.552 230.636 88.594V88.864C230.636 88.906 230.618 88.924 230.582 88.924ZM229.994 91.516H226.484C226.442 91.516 226.424 91.498 226.424 91.456V90.316C226.424 90.274 226.442 90.25 226.484 90.25H229.412V89.776H226.472C226.43 89.776 226.412 89.752 226.412 89.71V89.458C226.412 89.416 226.43 89.392 226.472 89.392H229.814C229.856 89.392 229.874 89.416 229.874 89.458V90.568C229.874 90.61 229.856 90.634 229.814 90.634H226.892V91.126H229.994C230.03 91.126 230.054 91.15 230.054 91.192V91.456C230.054 91.498 230.03 91.516 229.994 91.516ZM235.583 89.374C234.917 89.5 234.089 89.542 233.231 89.542H232.283C232.241 89.542 232.223 89.518 232.223 89.482V89.206C232.223 89.176 232.241 89.152 232.283 89.152H233.117C233.303 89.152 233.489 89.152 233.669 89.146V88.678C233.027 88.606 232.643 88.282 232.643 87.826C232.643 87.544 232.829 87.352 233.003 87.25H232.373C232.331 87.25 232.319 87.226 232.319 87.184V86.908C232.319 86.872 232.331 86.848 232.373 86.848H233.693V86.278C233.693 86.242 233.717 86.218 233.759 86.218H234.101C234.143 86.218 234.161 86.242 234.161 86.278V86.848H235.451C235.487 86.848 235.505 86.872 235.505 86.908V87.184C235.505 87.226 235.487 87.25 235.451 87.25H234.851C235.025 87.352 235.211 87.544 235.211 87.826C235.211 88.294 234.797 88.624 234.143 88.678V89.128C234.653 89.104 235.139 89.062 235.541 88.99C235.589 88.978 235.607 89.008 235.613 89.05L235.643 89.314C235.649 89.344 235.625 89.362 235.583 89.374ZM236.495 87.814H237.341C237.377 87.814 237.401 87.838 237.401 87.88V88.174C237.401 88.21 237.377 88.234 237.341 88.234H236.495V89.596C236.495 89.632 236.483 89.656 236.435 89.656H236.087C236.051 89.656 236.027 89.632 236.027 89.596V86.326C236.027 86.29 236.051 86.266 236.087 86.266H236.435C236.483 86.266 236.495 86.29 236.495 86.326V87.814ZM233.087 87.796C233.087 88.102 233.381 88.318 233.927 88.318C234.461 88.318 234.767 88.102 234.767 87.796C234.767 87.49 234.425 87.274 233.927 87.274C233.417 87.274 233.087 87.49 233.087 87.796ZM233.075 89.932H236.441C236.483 89.932 236.495 89.956 236.495 89.992V91.492C236.495 91.528 236.483 91.552 236.441 91.552H236.087C236.051 91.552 236.027 91.528 236.027 91.492V90.322H233.075C233.039 90.322 233.015 90.298 233.015 90.262V89.992C233.015 89.956 233.039 89.932 233.075 89.932ZM241.99 90.124H241.648C241.606 90.124 241.582 90.1 241.582 90.064V86.326C241.582 86.29 241.606 86.266 241.648 86.266H241.99C242.038 86.266 242.056 86.29 242.056 86.326V90.064C242.056 90.1 242.038 90.124 241.99 90.124ZM239.248 89.122C238.408 89.122 237.85 88.588 237.85 87.808C237.85 87.034 238.408 86.488 239.248 86.488C240.088 86.488 240.652 87.034 240.652 87.808C240.652 88.588 240.088 89.122 239.248 89.122ZM239.248 88.714C239.83 88.714 240.19 88.342 240.19 87.808C240.19 87.268 239.83 86.896 239.248 86.896C238.666 86.896 238.312 87.268 238.312 87.808C238.312 88.342 238.666 88.714 239.248 88.714ZM242.134 91.414H238.822C238.774 91.414 238.762 91.39 238.762 91.354V89.698C238.762 89.662 238.774 89.638 238.822 89.638H239.17C239.206 89.638 239.23 89.662 239.23 89.698V90.988H242.134C242.182 90.988 242.2 91.012 242.2 91.054V91.354C242.2 91.39 242.182 91.414 242.134 91.414ZM247.173 86.266H247.521C247.557 86.266 247.575 86.29 247.575 86.326V91.408C247.575 91.45 247.557 91.474 247.521 91.474H247.173C247.131 91.474 247.107 91.45 247.107 91.408V88.84H246.363V91.246C246.363 91.288 246.345 91.312 246.303 91.312H245.961C245.925 91.312 245.901 91.288 245.901 91.246V86.446C245.901 86.404 245.925 86.38 245.961 86.38H246.303C246.345 86.38 246.363 86.404 246.363 86.446V88.408H247.107V86.326C247.107 86.29 247.131 86.266 247.173 86.266ZM244.413 87.268H245.445C245.487 87.268 245.505 87.292 245.505 87.328V87.616C245.505 87.652 245.487 87.676 245.445 87.676H242.889C242.847 87.676 242.829 87.652 242.829 87.616V87.328C242.829 87.292 242.847 87.268 242.889 87.268H243.939V86.494C243.939 86.458 243.957 86.434 244.005 86.434H244.353C244.389 86.434 244.413 86.458 244.413 86.494V87.268ZM244.185 88.138C244.911 88.138 245.373 88.618 245.373 89.35C245.373 90.094 244.911 90.568 244.185 90.568C243.459 90.568 242.997 90.094 242.997 89.35C242.997 88.618 243.459 88.138 244.185 88.138ZM244.185 90.178C244.653 90.178 244.923 89.83 244.923 89.35C244.923 88.876 244.653 88.528 244.185 88.528C243.711 88.528 243.447 88.876 243.447 89.35C243.447 89.83 243.711 90.178 244.185 90.178ZM248.683 88.696L248.587 88.408C248.575 88.36 248.593 88.336 248.635 88.33C249.661 88.084 250.435 87.694 250.435 87.046V86.908H248.929C248.887 86.908 248.869 86.89 248.869 86.854V86.548C248.869 86.506 248.887 86.482 248.929 86.482H252.415C252.457 86.482 252.475 86.506 252.475 86.548V86.854C252.475 86.89 252.457 86.908 252.415 86.908H250.909V87.046C250.909 87.688 251.731 88.108 252.697 88.324C252.739 88.336 252.757 88.354 252.745 88.402L252.649 88.696C252.631 88.732 252.607 88.744 252.571 88.738C251.677 88.54 250.951 88.168 250.675 87.7C250.411 88.174 249.715 88.516 248.767 88.738C248.725 88.744 248.695 88.732 248.683 88.696ZM248.245 89.29H253.105C253.141 89.29 253.159 89.314 253.159 89.35V89.656C253.159 89.698 253.141 89.722 253.105 89.722H250.909V91.408C250.909 91.45 250.885 91.474 250.843 91.474H250.501C250.459 91.474 250.435 91.45 250.435 91.408V89.722H248.245C248.209 89.722 248.185 89.698 248.185 89.656V89.35C248.185 89.314 248.209 89.29 248.245 89.29ZM257.766 86.266H258.114C258.15 86.266 258.168 86.29 258.168 86.326V91.408C258.168 91.45 258.15 91.474 258.114 91.474H257.766C257.724 91.474 257.7 91.45 257.7 91.408V86.326C257.7 86.29 257.724 86.266 257.766 86.266ZM256.584 86.38H256.926C256.962 86.38 256.98 86.404 256.98 86.446V91.246C256.98 91.288 256.962 91.312 256.926 91.312H256.584C256.542 91.312 256.524 91.288 256.524 91.246V88.378H255.696C255.66 88.378 255.636 88.354 255.636 88.318V88.012C255.636 87.97 255.66 87.946 255.696 87.946H256.524V86.446C256.524 86.404 256.542 86.38 256.584 86.38ZM254.988 87.538C254.988 88.438 255.384 89.212 256.02 89.848C256.05 89.884 256.05 89.92 256.02 89.944L255.804 90.148C255.774 90.178 255.738 90.184 255.702 90.148C255.222 89.644 254.91 89.086 254.766 88.624C254.64 89.134 254.37 89.704 253.794 90.262C253.764 90.292 253.728 90.292 253.698 90.262L253.482 90.058C253.452 90.028 253.452 89.992 253.488 89.962C254.22 89.272 254.52 88.444 254.52 87.538V86.8C254.52 86.758 254.544 86.74 254.586 86.74H254.928C254.964 86.74 254.988 86.758 254.988 86.8V87.538ZM262.463 90.478H263.699C263.735 90.478 263.753 90.496 263.753 90.538V90.844C263.753 90.886 263.735 90.91 263.699 90.91H258.839C258.803 90.91 258.779 90.886 258.779 90.844V90.538C258.779 90.496 258.803 90.478 258.839 90.478H260.069V89.068C259.673 88.846 259.421 88.486 259.421 87.988C259.421 87.07 260.267 86.626 261.263 86.626C262.259 86.626 263.105 87.07 263.105 87.988C263.105 88.486 262.853 88.846 262.463 89.068V90.478ZM261.263 87.052C260.501 87.052 259.895 87.358 259.895 87.988C259.895 88.618 260.501 88.918 261.263 88.918C262.025 88.918 262.631 88.612 262.631 87.988C262.631 87.358 262.025 87.052 261.263 87.052ZM260.537 89.254V90.478H261.989V89.254C261.767 89.314 261.521 89.344 261.263 89.344C261.005 89.344 260.759 89.314 260.537 89.254Z" fill="#B4B4B4"/>
<circle cx="282" cy="43" r="10" fill="#ED723D"/>
</svg>
