<svg width="126" height="36" viewBox="0 0 126 36" fill="none" xmlns="http://www.w3.org/2000/svg">
<rect y="2" width="32" height="32" rx="6" fill="#DDDDDD"/>
<path fill-rule="evenodd" clip-rule="evenodd" d="M5.99805 15.8511H25.998V20.943C27.2208 21.777 28 23.0392 28 24.4522C28 26.9646 25.5365 29.0001 22.4967 29.0001C21.4894 29.0001 20.5459 28.7766 19.734 28.387C19.346 28.2003 18.8971 28.2003 18.5092 28.387C17.6973 28.7766 16.7537 29.0001 15.7465 29.0001C14.8195 29.0001 13.9453 28.8107 13.1791 28.4755C12.8244 28.3216 12.424 28.3216 12.0707 28.4755C11.3045 28.8107 10.4302 29.0001 9.50329 29.0001C6.46346 29.0001 4 26.9646 4 24.4522C4 23.0407 4.77756 21.7797 5.99805 20.9456V15.8511Z" fill="#F0F0E2"/>
<path d="M15.0856 7.27981L4.71237 14.2922C3.39195 15.1841 4.02855 17.2328 5.62682 17.2328H26.3732C27.9714 17.2328 28.6081 15.1841 27.2876 14.2922L16.9158 7.27981C16.3642 6.90673 15.6385 6.90673 15.0856 7.27981Z" fill="#ED723D"/>
<path d="M16.4784 19.0347C16.4784 21.249 15.2061 22.1522 13.6386 22.1522C12.0711 22.1522 10.7988 21.249 10.7988 19.0347C10.7988 16.8204 12.0711 15.4463 13.6386 15.4463C15.2061 15.4463 16.4784 16.8204 16.4784 19.0347Z" fill="white"/>
<path d="M21.2079 19.0347C21.2079 21.249 19.9356 22.1522 18.3681 22.1522C16.8006 22.1522 15.5283 21.249 15.5283 19.0347C15.5283 16.8204 16.8006 15.4463 18.3681 15.4463C19.9356 15.4463 21.2079 16.8204 21.2079 19.0347Z" fill="white"/>
<path d="M16.1881 18.9659C16.1881 20.5378 15.472 21.1788 14.5875 21.1788C13.703 21.1788 12.9868 20.5378 12.9868 18.9659C12.9868 17.3941 13.703 16.4181 14.5875 16.4181C15.472 16.4181 16.1881 17.3941 16.1881 18.9659Z" fill="#312C2C"/>
<path d="M21.0597 18.9659C21.0597 20.5378 20.3435 21.1788 19.459 21.1788C18.5745 21.1788 17.8584 20.5378 17.8584 18.9659C17.8584 17.3941 18.5745 16.4181 19.459 16.4181C20.3435 16.4181 21.0597 17.3941 21.0597 18.9659Z" fill="#312C2C"/>
<rect x="15" y="23" width="2" height="3" rx="1" fill="#F4AB8B"/>
<path d="M41.656 27V8.976H44.08V27H41.656ZM58.1028 27H55.7508V19.944C55.7508 18.216 54.3828 16.824 52.6548 16.824C50.9988 16.824 49.5828 18.144 49.5108 19.824V27H47.1588V15.024H49.5108V16.224C50.3988 15.288 51.6468 14.688 53.0868 14.688C55.8468 14.688 58.1028 16.872 58.1028 19.752V27ZM74.9086 27.312L71.4526 23.928C70.3246 26.04 68.4766 27.144 66.2446 27.144C62.9566 27.144 60.4366 24.696 60.4366 21.6C60.4366 18.984 61.7566 17.088 64.0366 16.344C63.3646 15.48 62.9086 14.472 62.9086 13.488C62.9086 10.824 64.9486 8.808 67.7086 8.808C70.3726 8.808 72.4606 10.68 72.4606 13.296C72.4606 15.648 70.7326 17.616 68.6446 17.736L70.9726 20.064L73.4926 15.624L75.5806 16.776L72.6766 21.768L76.5886 25.656L74.9086 27.312ZM66.7006 15.84H67.3486C69.1966 15.84 70.0366 14.568 70.0366 13.296C70.0366 12.024 68.9806 11.016 67.7086 11.016C66.2206 11.016 65.3326 12.216 65.3326 13.488C65.3326 14.472 66.0526 15.288 66.7006 15.84ZM69.7246 22.176L65.8366 18.192C64.1806 18.504 62.8606 19.416 62.8606 21.6C62.8606 23.52 64.3966 24.936 66.2446 24.936C67.9726 24.936 69.0286 23.808 69.7246 22.176ZM87.6621 25.104C91.5021 25.104 94.6221 22.224 94.6221 18C94.6221 13.8 91.5021 10.872 87.6621 10.872C83.8221 10.872 80.7021 13.8 80.7021 18C80.7021 22.224 83.8221 25.104 87.6621 25.104ZM87.6621 27.312C82.4301 27.312 78.2781 23.256 78.2781 18C78.2781 12.744 82.4301 8.664 87.6621 8.664C92.8941 8.664 97.0461 12.744 97.0461 18C97.0461 23.256 92.8941 27.312 87.6621 27.312ZM99.6102 15.024H101.962V22.128C101.962 23.952 103.21 25.176 104.866 25.176C106.498 25.176 107.746 23.952 107.746 22.128V15.024H110.098V27H107.746V25.8C106.906 26.76 105.706 27.312 104.362 27.312C101.698 27.312 99.6102 25.128 99.6102 22.224V15.024ZM118.107 17.232H115.251V22.944C115.251 24.12 115.995 24.792 116.931 24.792H118.107V27H116.931C114.699 27 112.899 25.392 112.899 22.968V11.856H115.251V15.024H118.107V17.232ZM123.524 21.6H121.124V8.976H123.524V21.6ZM122.324 24.048C123.164 24.048 123.884 24.744 123.884 25.608C123.884 26.448 123.164 27.168 122.324 27.168C121.388 27.168 120.764 26.448 120.764 25.608C120.764 24.744 121.388 24.048 122.324 24.048Z" fill="black"/>
</svg>
