<svg width="32" height="32" viewBox="0 0 32 32" fill="none" xmlns="http://www.w3.org/2000/svg">
<g id="Icon">
<rect width="32" height="32" rx="6" fill="#DDDDDD"/>
<path id="Vector 52" d="M14.7171 3.5727L5.71709 11.098C5.26262 11.478 5 12.0399 5 12.6323V24H27V12.6323C27 12.0399 26.7374 11.478 26.2829 11.098L17.2829 3.5727C16.5403 2.95179 15.4597 2.95179 14.7171 3.5727Z" fill="#BE5B31"/>
<rect id="Rectangle 211" x="7" y="5" width="18" height="21" rx="2" fill="white"/>
<path id="Vector 50" d="M5 26V14L23.0864 25.304C24.7904 26.369 24.0358 29 22.0264 29H8C6.34315 29 5 27.6569 5 26Z" fill="#F18E64"/>
<path id="Vector 51" d="M27 26V14L9.63534 25.3248C7.9691 26.4115 8.7386 29 10.7279 29H24C25.6569 29 27 27.6569 27 26Z" fill="#F18E64"/>
<line id="Line 13" x1="11" y1="10" x2="21" y2="10" stroke="#F8CCB9" stroke-width="2" stroke-linecap="round"/>
<line id="Line 14" x1="11" y1="14" x2="16" y2="14" stroke="#F8CCB9" stroke-width="2" stroke-linecap="round"/>
</g>
</svg>
