<svg width="32" height="32" viewBox="0 0 32 32" fill="none" xmlns="http://www.w3.org/2000/svg">
<rect width="32" height="32" rx="6" fill="#DDDDDD"/>
<path d="M24.6491 23C21.7567 23 20 20.9182 20 18C20 15.0818 21.7567 13 24.6491 13C27.4705 13 29.0852 15.1933 28.9965 18.5019C28.9788 18.6691 28.8901 18.7435 28.7481 18.7435H22.4488C22.6617 20.0632 23.4425 20.8625 24.6668 20.8625C25.6073 20.8625 26.2639 20.4907 26.6897 19.7658C26.7607 19.6357 26.8672 19.6171 26.9914 19.6543L28.5707 20.2305C28.7126 20.2862 28.7658 20.3978 28.6949 20.5465C27.8786 22.2379 26.3526 23 24.6491 23ZM22.4842 16.9405H26.53C26.3171 15.8067 25.625 15.1375 24.6313 15.1375C23.5489 15.1375 22.7682 15.7881 22.4842 16.9405Z" fill="#B3B1AD"/>
<path d="M9.12268 22H7.57464C7.45686 22 7.3559 21.951 7.32225 21.8365L3.01468 10.2452C2.9642 10.0981 3.04833 10 3.19977 10H5.33673C5.45451 10 5.53864 10.049 5.5723 10.1798L8.28135 18.2725L11.0241 10.1798C11.0577 10.049 11.1419 10 11.2596 10H12.774C12.8918 10 12.9759 10.049 13.0096 10.1798L15.7523 18.2888L18.4782 10.1798C18.5118 10.049 18.596 10 18.7138 10H20.8002C20.9517 10 21.0358 10.0981 20.9853 10.2452L16.6778 21.8365C16.6441 21.951 16.5431 22 16.4254 22H14.8773C14.7595 22 14.6754 21.951 14.6418 21.8202L12 14.0054L9.35825 21.8202C9.32459 21.951 9.24046 22 9.12268 22Z" fill="#B3B1AD"/>
</svg>
