<svg width="360" height="360" viewBox="0 0 360 360" fill="none" xmlns="http://www.w3.org/2000/svg">
<rect width="360" height="360" fill="#F8CCB9"/>
<path fill-rule="evenodd" clip-rule="evenodd" d="M90 219.162H270V264.999C280.994 272.505 288 283.86 288 296.57C288 319.181 265.829 337.501 238.47 337.501C229.405 337.501 220.913 335.49 213.606 331.983C210.114 330.303 206.074 330.303 202.583 331.983C195.275 335.49 186.784 337.501 177.718 337.501C169.376 337.501 161.507 335.796 154.612 332.78C151.419 331.394 147.816 331.394 144.636 332.78C137.74 335.796 129.872 337.501 121.53 337.501C94.1711 337.501 72 319.181 72 296.57C72 283.86 79.0055 272.505 90 264.999V219.162Z" fill="#F0F0E2"/>
<path d="M171.77 142.018L78.4113 205.13C66.5275 213.157 72.257 231.595 86.6413 231.595H273.359C287.743 231.595 293.472 213.157 281.589 205.13L188.242 142.018C183.277 138.661 176.747 138.661 171.77 142.018Z" fill="#ED723D"/>
<path d="M130.282 311.235C129.376 311.235 128.469 310.951 127.687 310.37C125.762 308.937 125.364 306.231 126.805 304.316C134.989 293.407 127.128 282.436 126.793 281.979C125.377 280.064 125.787 277.358 127.712 275.937C129.636 274.516 132.344 274.912 133.772 276.814C138.007 282.46 143.471 296.557 133.772 309.481C132.915 310.617 131.611 311.223 130.282 311.223V311.235Z" fill="#ED723D"/>
<path fill-rule="evenodd" clip-rule="evenodd" d="M180.023 265.311C175.44 272.654 167.619 275.869 158.747 275.869C144.64 275.869 133.189 267.739 133.189 247.811C133.189 227.882 144.64 215.515 158.747 215.515C167.619 215.515 175.44 220.406 180.023 228.993C184.607 220.406 192.428 215.515 201.3 215.515C215.407 215.515 226.858 227.882 226.858 247.811C226.858 267.739 215.407 275.869 201.3 275.869C192.428 275.869 184.607 272.654 180.023 265.311Z" fill="white"/>
<path d="M181.697 247.193C181.697 261.34 175.252 267.109 167.292 267.109C159.331 267.109 152.886 261.34 152.886 247.193C152.886 233.047 159.331 224.263 167.292 224.263C175.252 224.263 181.697 233.047 181.697 247.193Z" fill="#312C2C"/>
<path d="M225.537 247.193C225.537 261.34 219.092 267.109 211.131 267.109C203.171 267.109 196.726 261.34 196.726 247.193C196.726 233.047 203.171 224.263 211.131 224.263C219.092 224.263 225.537 233.047 225.537 247.193Z" fill="#312C2C"/>
<rect x="24.75" y="22.5" width="312.75" height="108" rx="54" fill="white"/>
<path d="M129.76 73.56H125.26V40.404H129.76V73.56ZM123.1 40.98V72.084H118.672V61.824H114.892C113.632 65.028 111.544 66.864 108.808 66.864C104.38 66.864 101.608 62.328 101.608 54.804C101.608 47.316 104.38 42.78 108.808 42.78C111.544 42.78 113.596 44.544 114.856 47.748H118.672V40.98H123.1ZM108.808 62.4C110.644 62.4 111.724 59.88 111.724 54.804C111.724 49.728 110.644 47.244 108.808 47.244C106.936 47.244 105.856 49.728 105.856 54.804C105.856 59.88 106.936 62.4 108.808 62.4ZM118.672 51.564H115.756C115.9 52.572 115.972 53.652 115.972 54.804C115.972 55.92 115.9 57 115.792 57.972H118.672V51.564ZM161.185 73.668H156.433V40.404H161.185V73.668ZM146.569 47.82C146.569 53.976 149.197 60.024 154.813 62.436L152.113 66.288C148.225 64.56 145.741 61.284 144.265 57.216C142.789 61.716 140.197 65.208 136.129 67.08L133.285 63.156C139.081 60.636 141.817 54.3 141.817 47.82V42.996H146.569V47.82ZM193.654 58.26H188.866V40.44H193.654V58.26ZM175.618 41.808C180.766 41.808 184.618 45.084 184.618 49.62C184.618 54.228 180.766 57.468 175.618 57.468C170.47 57.468 166.582 54.228 166.582 49.62C166.582 45.084 170.47 41.808 175.618 41.808ZM175.618 45.732C173.026 45.732 171.226 47.172 171.226 49.62C171.226 52.104 173.026 53.544 175.618 53.544C178.21 53.544 179.974 52.104 179.974 49.62C179.974 47.172 178.21 45.732 175.618 45.732ZM176.338 62.796H188.938V59.7H193.654V73.2H171.622V59.7H176.338V62.796ZM188.938 69.456V66.432H176.338V69.456H188.938ZM226.196 73.56H221.444V40.404H226.196V73.56ZM204.956 61.356C209.312 61.248 213.956 60.888 218.888 59.916L219.392 63.876C213.74 65.064 208.268 65.424 203.192 65.424H200.24V43.572H204.956V61.356ZM261.401 52.14H257.081V59.592H252.293V40.404H257.081V48.288H261.401V52.14ZM250.169 56.82C246.101 57.684 242.285 57.9 234.869 57.9H232.061V42.672H246.929V46.452H236.777V54.084C242.717 54.084 246.137 53.796 249.701 53.04L250.169 56.82ZM246.137 60.168C253.013 60.168 257.369 62.724 257.369 66.9C257.369 71.076 253.013 73.632 246.137 73.632C239.333 73.632 234.941 71.076 234.941 66.9C234.941 62.724 239.333 60.168 246.137 60.168ZM246.137 69.852C250.349 69.852 252.689 68.916 252.689 66.9C252.689 64.884 250.349 63.948 246.137 63.948C241.925 63.948 239.621 64.884 239.621 66.9C239.621 68.916 241.925 69.852 246.137 69.852ZM126.844 79.86V84.288H115.828V90.444H125.188V94.908H115.828V102.036H127.24V106.5H110.5V79.86H126.844ZM127.973 86.34H133.661L135.677 89.94C136.289 91.092 136.865 92.208 137.477 93.324H137.621C138.089 92.208 138.629 91.056 139.097 89.94L140.789 86.34H146.261L140.357 96.6L146.657 106.5H140.969L138.737 102.828C138.053 101.64 137.477 100.416 136.793 99.264H136.613C136.037 100.416 135.497 101.568 134.921 102.828L133.049 106.5H127.577L133.877 95.988L127.973 86.34ZM154.307 106.86C150.707 106.86 148.331 104.52 148.331 101.028C148.079 96.096 151.571 93.828 159.923 93.576C160.031 92.712 159.851 91.848 159.455 91.02C159.023 90.408 158.051 90.084 156.503 90.084C154.631 90.084 152.507 90.804 150.671 91.992L149.087 88.212C151.283 86.88 154.307 85.836 157.475 85.836C162.623 85.836 165.215 88.788 165.215 94.728V106.5H160.895L160.499 104.448H160.391C158.663 105.924 156.611 106.86 154.307 106.86ZM155.927 102.828C157.475 102.792 158.663 102.144 159.923 100.884V96.816C158.663 96.924 157.439 97.032 156.287 97.212C153.983 97.536 153.155 98.688 153.191 100.128C153.227 101.82 154.379 102.828 155.927 102.828ZM174.209 86.34L174.569 89.04H174.713C176.405 87.276 178.277 85.836 180.905 85.836C183.785 85.836 185.477 87.06 186.449 89.364C188.285 87.348 190.229 85.836 192.857 85.836C197.177 85.836 199.121 88.86 199.121 93.936V106.5H193.829V94.584C193.829 91.416 192.929 90.372 191.021 90.372C189.869 90.372 188.573 91.128 187.133 92.64V106.5H181.841V94.584C181.841 91.416 180.941 90.372 179.033 90.372C177.881 90.372 176.585 91.128 175.145 92.64V106.5H169.889V86.34H174.209ZM208.188 86.34L208.548 88.428H208.692C210.384 86.988 212.472 85.836 214.632 85.836C219.6 85.836 222.552 89.904 222.552 96.096C222.552 103.008 218.412 107.004 213.984 107.004C212.22 107.004 210.528 106.212 208.98 104.808L209.124 108.12V114.24H203.868V86.34H208.188ZM212.796 102.648C215.244 102.648 217.116 100.632 217.116 96.168C217.116 92.28 215.892 90.192 213.12 90.192C211.716 90.192 210.528 90.876 209.124 92.28V101.136C210.42 102.252 211.68 102.648 212.796 102.648ZM226.316 77.772H231.572V106.5H226.316V77.772ZM245.7 107.004C240.084 107.004 235.692 103.08 235.692 96.456C235.692 89.94 240.3 85.836 245.088 85.836C250.632 85.836 253.512 89.904 253.512 95.484C253.512 96.456 253.404 97.428 253.26 97.896H240.84C241.272 101.208 243.396 102.936 246.42 102.936C248.112 102.936 249.516 102.432 250.956 101.532L252.756 104.772C250.74 106.176 248.292 107.004 245.7 107.004ZM248.976 94.404C248.976 91.668 247.752 89.94 245.16 89.94C243.036 89.94 241.164 91.488 240.768 94.404H248.976Z" fill="#ED723D"/>
<circle cx="299.25" cy="137.25" r="27" fill="white"/>
<circle cx="270" cy="171" r="11.25" fill="white"/>
</svg>
