<svg width="32" height="32" viewBox="0 0 32 32" fill="none" xmlns="http://www.w3.org/2000/svg">
<path fill-rule="evenodd" clip-rule="evenodd" d="M3.55603 13.3262H28.4449V19.6642C29.9651 20.7021 30.9338 22.2721 30.9338 24.0295C30.9338 27.156 27.8682 29.6891 24.0853 29.6891C22.8318 29.6891 21.6576 29.4111 20.6472 28.9261C20.1644 28.6939 19.6058 28.6939 19.123 28.9261C18.1126 29.4111 16.9384 29.6891 15.6849 29.6891C14.5315 29.6891 13.4435 29.4535 12.49 29.0364C12.0486 28.8448 11.5503 28.8448 11.1106 29.0364C10.1571 29.4535 9.06917 29.6891 7.91568 29.6891C4.13277 29.6891 1.06714 27.156 1.06714 24.0295C1.06714 22.2721 2.0358 20.7021 3.55603 19.6642V13.3262Z" fill="#F0F0E2"/>
<path d="M14.8622 2.65925L1.9534 11.3858C0.310208 12.4957 1.10243 15.0451 3.09138 15.0451H28.9091C30.898 15.0451 31.6902 12.4957 30.0471 11.3858L17.1399 2.65925C16.4534 2.19496 15.5504 2.19496 14.8622 2.65925Z" fill="#ED723D"/>
<path d="M9.12577 26.0573C9.00041 26.0573 8.87506 26.018 8.76688 25.9377C8.50072 25.7395 8.44577 25.3654 8.64496 25.1006C9.77657 23.5921 8.68961 22.0751 8.64324 22.0119C8.44749 21.7471 8.50415 21.373 8.77031 21.1766C9.03647 20.9801 9.41082 21.0348 9.60829 21.2978C10.1938 22.0786 10.9494 24.0278 9.60829 25.8147C9.48981 25.9718 9.3095 26.0555 9.12577 26.0555V26.0573Z" fill="#ED723D"/>
<path fill-rule="evenodd" clip-rule="evenodd" d="M16.0043 19.7069C15.3706 20.7224 14.2891 21.167 13.0623 21.167C11.1115 21.167 9.52832 20.0429 9.52832 17.2873C9.52832 14.5318 11.1115 12.8218 13.0623 12.8218C14.2891 12.8218 15.3706 13.4982 16.0043 14.6856C16.638 13.4982 17.7195 12.8218 18.9463 12.8218C20.897 12.8218 22.4802 14.5318 22.4802 17.2874C22.4802 20.0429 20.897 21.167 18.9463 21.167C17.7195 21.167 16.638 20.7224 16.0043 19.7069Z" fill="white"/>
<path d="M16.2348 17.2019C16.2348 19.1579 15.3436 19.9557 14.2429 19.9557C13.1422 19.9557 12.251 19.1579 12.251 17.2019C12.251 15.2459 13.1422 14.0312 14.2429 14.0312C15.3436 14.0312 16.2348 15.2459 16.2348 17.2019Z" fill="#312C2C"/>
<path d="M22.2966 17.2019C22.2966 19.1579 21.4054 19.9557 20.3047 19.9557C19.204 19.9557 18.3127 19.1579 18.3127 17.2019C18.3127 15.2459 19.204 14.0312 20.3047 14.0312C21.4054 14.0312 22.2966 15.2459 22.2966 17.2019Z" fill="#312C2C"/>
</svg>
