<svg width="106" height="106" viewBox="0 0 106 106" fill="none" xmlns="http://www.w3.org/2000/svg">
<g id="Group">
<path id="Vector" d="M94.075 9.27502H11.925C10.4622 9.27502 9.27502 10.4622 9.27502 11.925V94.075C9.27502 95.5378 10.4622 96.725 11.925 96.725H94.075C95.5378 96.725 96.725 95.5378 96.725 94.075V11.925C96.725 10.4622 95.5378 9.27502 94.075 9.27502Z" fill="#C3846C"/>
<path id="Vector_2" d="M86.9179 19.08H19.0779V86.92H86.9179V19.08Z" fill="#E5E9EE"/>
<path id="Vector_3" d="M62.7572 73.4739H36.9568C32.95 73.4739 30.5306 69.0431 32.693 65.6723L45.5958 45.5641C47.5886 42.4557 52.1281 42.4557 54.1209 45.5641L67.0237 65.6723C69.1861 69.0431 66.7614 73.4739 62.7572 73.4739Z" fill="#23B169"/>
<path id="Vector_4" d="M70.1478 46.0677C66.6021 46.0677 63.7242 43.1898 63.7242 39.6441C63.7242 36.0984 66.6021 33.2205 70.1478 33.2205C73.6935 33.2205 76.5714 36.0957 76.5714 39.6441C76.5714 43.1924 73.6962 46.0677 70.1478 46.0677Z" fill="#313D4C"/>
</g>
</svg>
